<svg xmlns="http://www.w3.org/2000/svg" viewBox="0 0 341.37 73.7"><defs><style>.a{fill:#ff9632}</style></defs><path class="a" d="M109.08 72.96a36.11 36.11 0 1136.11-36.11 36.11 36.11 0 01-36.11 36.11m-36.85-73v73.7h73.7V0z"/><path class="a" d="M36.12.74a36.11 36.11 0 1036.11 36.11A36.12 36.12 0 0036.12.74"/><path d="M176.71 14.4c-.17-.43-.41-1.15-.71-2.18-.26 1-.47 1.71-.64 2.18l-3.43 8.82h8.18zm10.91 16.59v1.33h-6.61v-1.33a.5.5 0 01.44-.52l1.32-.38-1.8-4.62h-9.91l-1.8 4.62 1.32.38a.49.49 0 01.42.52v1.33h-6.58v-1.33a.49.49 0 01.42-.52l1.28-.38 8.34-20.77h3.15l8.3 20.79 1.29.38a.51.51 0 01.42.52M205.09 32.32h-3a1.38 1.38 0 01-1.09-.58l-5.33-6.67a1.16 1.16 0 00-.48-.42 2.35 2.35 0 00-.74-.09h-.77v5.42l1.13.22.67.13a.57.57 0 01.51.61v1.38h-7.51v-1.43a.56.56 0 01.49-.61l1.82-.35v-19a18.11 18.11 0 01-1.82-.39.53.53 0 01-.49-.57V8.63h5.2v13.89h.71a1.21 1.21 0 001-.45l3.66-3.91-.38-.07-.52-.1a.56.56 0 01-.51-.61v-1.34h6.8v1.34a.52.52 0 01-.41.58l-2 .39-3.79 4a4 4 0 01-.93.87c.43.27.48.39 1 1l4.49 5.71.84.13c.56.09 1 .19 1 .19a.54.54 0 01.48.58M212.96 25.18a10.93 10.93 0 00-2.25.67 3.12 3.12 0 00-1.28 1 2.13 2.13 0 00-.39 1.22 3 3 0 00.23 1.09 1.79 1.79 0 00.58.77 2.39 2.39 0 00.83.41 3.64 3.64 0 001.06.16 5.91 5.91 0 001.35-.16 6.08 6.08 0 001.18-.41 5 5 0 001.06-.71 10.55 10.55 0 001-.9v-3.36a19.71 19.71 0 00-3.33.22m8.24 5.65v1.38h-3.39c-.65 0-.91-.23-1-.65l-.32-1.53-1.28 1a5.18 5.18 0 01-1.28.77 7.48 7.48 0 01-1.42.49 7.75 7.75 0 01-1.73.16 5.28 5.28 0 01-1.73-.29 4.19 4.19 0 01-1.44-.77 4.07 4.07 0 01-1-1.35 4.54 4.54 0 01-.35-1.92 3.52 3.52 0 01.55-1.8 4.93 4.93 0 011.74-1.6 11.31 11.31 0 013.08-1.16 22.43 22.43 0 014.68-.41v-1.27a4.41 4.41 0 00-.83-2.89 3 3 0 00-2.41-1 4.93 4.93 0 00-1.77.29 6.92 6.92 0 00-1.21.58c-.13.09-.28.18-.44.27l-.5.31a1.22 1.22 0 01-.73.25.89.89 0 01-.52-.12 1.76 1.76 0 01-.32-.39l-.51-.9a9.48 9.48 0 012.9-1.96 8.58 8.58 0 013.46-.64 5.91 5.91 0 012.44.45 4.94 4.94 0 012.86 3.19 8.11 8.11 0 01.35 2.5v8.12a10.92 10.92 0 011.47.36c.12.02.61.19.61.53zM234.32 27.72v-7.83a4.46 4.46 0 00-3.75-1.93 4.22 4.22 0 00-3.57 1.61 7.55 7.55 0 00-1.21 4.62q0 4.59 2.37 5.64a5.44 5.44 0 001.8.36 5.32 5.32 0 004.36-2.47m0-10.08v-6.67l-2.15-.39a.53.53 0 01-.48-.57V8.59h5.45V29.9c1.07.19 1.69.32 1.86.38a.53.53 0 01.45.58v1.46h-4a.76.76 0 01-.77-.61l-.25-2a6.87 6.87 0 01-5.46 2.76 5.36 5.36 0 01-4.47-2.15 10.07 10.07 0 01-1.65-6.13 9.24 9.24 0 011.9-6 6.27 6.27 0 015.1-2.47 5.71 5.71 0 014.43 1.92M245.51 19.05a5.89 5.89 0 00-1.47 3.34h8.81a5.15 5.15 0 00-.29-1.8 4.12 4.12 0 00-.77-1.44 4 4 0 00-1.31-.93 5.61 5.61 0 00-1.74-.35 4.11 4.11 0 00-3.24 1.18m5.84-2.79a5.42 5.42 0 012.12 1.38 6.67 6.67 0 011.39 2.28 9.18 9.18 0 01.52 3.08 1.91 1.91 0 01-.13.9.67.67 0 01-.58.22h-10.75a8.75 8.75 0 00.38 2.7 5.26 5.26 0 001.1 1.86 4.11 4.11 0 001.6 1.15 5.42 5.42 0 002.05.39 6.26 6.26 0 001.86-.23 12.66 12.66 0 001.35-.54c.47-.24.79-.41 1-.52a1.41 1.41 0 01.65-.25.6.6 0 01.54.29l.8 1.06a4.93 4.93 0 01-1.28 1.09 7.73 7.73 0 01-1.57.8 12.73 12.73 0 01-1.73.45 11.73 11.73 0 01-1.77.16 8.19 8.19 0 01-3.11-.58 6.81 6.81 0 01-2.47-1.7 7.25 7.25 0 01-1.61-2.73 11.27 11.27 0 01-.57-3.72 9 9 0 01.54-3.14 7.76 7.76 0 011.51-2.57 6.84 6.84 0 012.41-1.7 7.78 7.78 0 013.14-.61 7.34 7.34 0 012.66.48M267.09 15.78a3.89 3.89 0 012.7.93 5.35 5.35 0 011.47 2.47 5.08 5.08 0 012.12-2.56 5.72 5.72 0 012.82-.84 7 7 0 012.51.42 4.25 4.25 0 011.73 1.18 6.69 6.69 0 011.41 4.56v8a15.63 15.63 0 011.86.39.53.53 0 01.48.57v1.42h-5.16V21.97a4.24 4.24 0 00-.84-2.89 3.13 3.13 0 00-2.44-1 3.29 3.29 0 00-2.43 1 3.9 3.9 0 00-1.06 2.89v8l.54.13 1.29.26a.53.53 0 01.48.57v1.39h-5.17V21.94c0-2.57-1-3.85-3.08-3.85a4.62 4.62 0 00-3.62 2.12v9.75l.86.16 1 .19a.56.56 0 01.48.61v1.4h-7.48v-1.4a.55.55 0 01.45-.61l1.86-.35V18.38a15.63 15.63 0 01-1.86-.39.54.54 0 01-.45-.61v-1.34h4a.69.69 0 01.77.58c.07.48.22 1.66.22 1.66a5.89 5.89 0 014.59-2.54M293.55 30.49a.64.64 0 01.13.4v1.43h-7.48v-1.43a.71.71 0 01.13-.4.5.5 0 01.35-.21l1.87-.35V18.32l-1.87-.36a.52.52 0 01-.35-.2.71.71 0 01-.13-.41v-1.31h5.17v13.89l1.83.35a.5.5 0 01.35.21M312.33 32.32h-3a1.4 1.4 0 01-1.09-.58l-5.32-6.67a1.12 1.12 0 00-.49-.42 2.28 2.28 0 00-.73-.09h-.77v5.42l1.79.35a.57.57 0 01.52.61v1.38h-7.51v-1.43a.56.56 0 01.48-.61l1.83-.35v-19a17.9 17.9 0 01-1.83-.39.53.53 0 01-.48-.57V8.63h5.2v13.89h.7a1.24 1.24 0 001-.45l3.66-3.91-.9-.17a.56.56 0 01-.51-.61v-1.34h6.8v1.34a.51.51 0 01-.42.58l-2 .39-3.78 4a4.21 4.21 0 01-.94.87 3.51 3.51 0 011 1l4.49 5.71 1.89.34a.51.51 0 01.42.5zM317.44 19.05a5.9 5.9 0 00-1.48 3.34h8.82a5.15 5.15 0 00-.29-1.8 4.12 4.12 0 00-.77-1.44 4 4 0 00-1.31-.93 5.33 5.33 0 00-1.73-.35 4.13 4.13 0 00-3.24 1.18m5.84-2.79a5.39 5.39 0 012.11 1.38 6.52 6.52 0 011.46 2.28 8.93 8.93 0 01.52 3.08 1.91 1.91 0 01-.13.9.67.67 0 01-.58.22h-10.81a8.45 8.45 0 00.39 2.7 5.08 5.08 0 001.09 1.86 4.11 4.11 0 001.6 1.15 5.43 5.43 0 002.06.39 6.26 6.26 0 001.86-.23 12.51 12.51 0 001.34-.54c.47-.24.8-.41 1-.52a1.35 1.35 0 01.64-.25.6.6 0 01.54.29l.81 1.06a5 5 0 01-1.33 1.09 7.48 7.48 0 01-1.57.8 12.73 12.73 0 01-1.73.45 11.61 11.61 0 01-1.77.16 8.19 8.19 0 01-3.11-.58 6.81 6.81 0 01-2.47-1.7 7.23 7.23 0 01-1.6-2.73 11 11 0 01-.58-3.72 8.83 8.83 0 01.55-3.14 7.58 7.58 0 011.5-2.57 7 7 0 012.41-1.7 7.78 7.78 0 013.14-.61 7.44 7.44 0 012.67.48M339.16 15.72a4.25 4.25 0 012.21.57l-.35 2.15q-.09.42-.42.42a3.12 3.12 0 01-.77-.16 4.56 4.56 0 00-1.31-.16q-2.82 0-4.17 3.4v8l1.83.35a.56.56 0 01.48.61v1.42h-7.48v-1.4a.56.56 0 01.48-.61l1.83-.35V18.38q-1.53-.28-1.83-.39a.54.54 0 01-.48-.6v-1.35h3.92c.4 0 .83.1.89.72l.2 2.58c1.2-2.41 2.84-3.62 4.94-3.62M177.46 45.08a5.79 5.79 0 00-4.07-1.22h-3.28v9.46h3.28a5.78 5.78 0 004-1.28 5 5 0 00.06-6.93m2.28 8.66a9.5 9.5 0 01-6.35 2h-3.28v6.26c.18.06.8.19 1.87.38a.55.55 0 01.44.61v1.35h-7.7v-1.33a.56.56 0 01.49-.61l1.82-.35V43.76c-1-.19-1.63-.32-1.82-.38a.56.56 0 01-.49-.61v-1.35h8.95a8.18 8.18 0 016.47 2.44 7.1 7.1 0 011.78 4.85 6.87 6.87 0 01-2.17 5.03zM187.03 51.17a5.89 5.89 0 00-1.47 3.34h8.82a5.39 5.39 0 00-.29-1.8 4.12 4.12 0 00-.77-1.44 4 4 0 00-1.31-.93 5 5 0 00-1.74-.35 4.1 4.1 0 00-3.24 1.18m5.82-2.79a5.42 5.42 0 012.12 1.38 6.58 6.58 0 011.41 2.28 9.18 9.18 0 01.52 3.08 1.91 1.91 0 01-.13.9.67.67 0 01-.58.22h-10.76a8.75 8.75 0 00.38 2.7 5.26 5.26 0 001.1 1.86 4.11 4.11 0 001.6 1.15 5.42 5.42 0 002.05.39 6.26 6.26 0 001.86-.23 12.66 12.66 0 001.35-.54c.47-.24.79-.41 1-.52a1.42 1.42 0 01.64-.25.61.61 0 01.55.29l.8 1.06a4.93 4.93 0 01-1.28 1.09 7.73 7.73 0 01-1.57.8 12.73 12.73 0 01-1.73.45 11.84 11.84 0 01-1.77.16 8.39 8.39 0 01-3.11-.58 6.73 6.73 0 01-2.47-1.7 7.33 7.33 0 01-1.61-2.73 11.27 11.27 0 01-.57-3.72 9 9 0 01.54-3.14 7.76 7.76 0 011.51-2.57 6.84 6.84 0 012.41-1.7 7.78 7.78 0 013.14-.61 7.34 7.34 0 012.66.48M209.32 47.87a5 5 0 014.05 1.7 6.78 6.78 0 011.38 4.46v8c1 .19 1.63.32 1.83.38a.57.57 0 01.51.61v1.38h-5.24V54.06q0-3.91-3.4-3.91a5.91 5.91 0 00-4.43 2.27v9.63c.09 0 .71.13 1.86.38a.56.56 0 01.48.61v1.35h-7.47v-1.35a.55.55 0 01.45-.61l1.86-.35V50.5a15.63 15.63 0 01-1.86-.39.54.54 0 01-.45-.61v-1.34h4c.38 0 .7.1.77.57s.25 1.77.25 1.77a7.21 7.21 0 015.39-2.6M229.65 48.77v4.17h-1.25a.5.5 0 01-.54-.45l-.2-2.12a11.65 11.65 0 00-2.5-.35 3.92 3.92 0 00-2.21.7 1.89 1.89 0 00-.49 2.7 4.05 4.05 0 001.86 1.12l1 .29c.17 0 .51.15 1 .32a10.8 10.8 0 012.89 1.41 3.48 3.48 0 011.32 2.83 4.7 4.7 0 01-1.58 3.72 6.24 6.24 0 01-4.29 1.51 16.54 16.54 0 01-5.27-.87v-4.24h1.16a.45.45 0 01.48.39l.19 2a7.39 7.39 0 003.31.64 3.75 3.75 0 002.5-.8 2.14 2.14 0 00.83-1.63 2 2 0 00-.38-1.35 3.23 3.23 0 00-1-.77 6 6 0 00-1.35-.51c-1.58-.52-2.58-.86-3-1a7.22 7.22 0 01-1.44-.9 3.72 3.72 0 01-1.35-3 4.22 4.22 0 011.51-3.26 6.64 6.64 0 014.53-1.41 13.78 13.78 0 014.23.87M240.46 62.61a.64.64 0 01.13.4v1.38h-7.47v-1.38a.7.7 0 01.12-.4.52.52 0 01.36-.21l1.86-.35V50.47l-1.86-.36a.54.54 0 01-.36-.2.73.73 0 01-.12-.41v-1.34h5.16v13.89l1.83.35a.48.48 0 01.35.21M253.55 60.8a7.68 7.68 0 001.18-4.48 7.67 7.67 0 00-1.18-4.52 4.08 4.08 0 00-3.6-1.6 5.1 5.1 0 00-2.11.38 4 4 0 00-1.48 1.22 5.62 5.62 0 00-.9 1.93 11 11 0 00-.32 2.63 10.69 10.69 0 00.32 2.56 5.62 5.62 0 00.9 1.93 3.66 3.66 0 001.49 1.1 5.2 5.2 0 002.11.45 4.08 4.08 0 003.6-1.6m-.39-12.32a7.06 7.06 0 012.47 1.67 6.74 6.74 0 011.54 2.63 11.19 11.19 0 010 6.93 6.81 6.81 0 01-1.55 2.61 7.34 7.34 0 01-2.47 1.67 9.3 9.3 0 01-6.41 0 7.38 7.38 0 01-2.48-1.67 7.63 7.63 0 01-1.57-2.63 12 12 0 010-6.93 7.53 7.53 0 011.57-2.63 7.1 7.1 0 012.48-1.67 9.15 9.15 0 016.41 0M269.71 47.87a5 5 0 014 1.7 6.78 6.78 0 011.38 4.46v8c1 .19 1.64.32 1.83.38a.57.57 0 01.51.61v1.38h-5.19V54.06q0-3.91-3.41-3.91a5.88 5.88 0 00-4.42 2.27v9.63l1.86.38a.56.56 0 01.48.61v1.35h-7.48v-1.35a.55.55 0 01.45-.61l1.86-.35V50.5c-1.1-.22-1.68-.33-1.86-.39a.56.56 0 01-.45-.61v-1.34h4c.39 0 .71.15.77.57s.26 1.77.26 1.77a7.18 7.18 0 015.39-2.6"/><circle cx="289.91" cy="10.9" r="2.06"/><circle cx="236.39" cy="43.29" r="2.06"/></svg>