<?xml version="1.0" encoding="UTF-8"?>
<!-- Generator: Adobe Illustrator 25.0.0, SVG Export Plug-In . SVG Version: 6.00 Build 0)  -->
<svg version="1.1" id="Layer_1" xmlns="http://www.w3.org/2000/svg" xmlns:xlink="http://www.w3.org/1999/xlink" x="0px" y="0px" viewBox="0 0 600.8 226.2" enable-background="new 0 0 600.8 226.2" xml:space="preserve">
<path fill="#234D60" d="M220.7,78.9c-7.6-6.5-17.7-6.1-17.7-6.1l0,108.9h23.7V92C226.7,92,227.2,84.5,220.7,78.9"/>
<path fill="#234D60" d="M160.5,149.1c-0.7,3.3-1.8,6.2-3.3,8.8c-1.6,2.6-3.7,4.6-6.3,6.2c-2.6,1.5-5.9,2.3-9.8,2.3  c-3.7,0-6.8-0.8-9.4-2.4c-2.6-1.6-4.8-3.7-6.5-6.3c-1.7-2.6-3-5.5-3.8-8.8c-0.8-3.3-1.2-6.6-1.2-9.9c0-3.5,0.4-6.9,1.1-10.1  c0.7-3.2,1.9-6.1,3.5-8.7c1.6-2.5,3.8-4.6,6.4-6.1c2.7-1.5,6-2.3,9.9-2.3c3.9,0,7.1,0.8,9.7,2.3c2.6,1.5,4.7,3.5,6.3,6  c1.6,2.5,2.8,5.3,3.4,8.6c0.7,3.2,1,6.6,1,10.1C161.5,142.4,161.2,145.8,160.5,149.1 M178.4,77.9c-7.6-6.5-17.7-6.1-17.7-6.1v35  h-0.3c-2.7-4.2-6.3-7.3-11-9.5c-4.6-2.1-9.5-3.2-14.6-3.2c-6.4,0-11.9,1.2-16.7,3.7c-4.8,2.5-8.8,5.7-11.9,9.8  c-3.2,4.1-5.6,8.8-7.2,14.1c-1.6,5.3-2.4,10.9-2.4,16.6c0,5.9,0.8,11.7,2.4,17.2c1.6,5.5,4,10.4,7.2,14.6c3.2,4.2,7.2,7.6,12.1,10.1  c4.9,2.5,10.6,3.7,17.1,3.7c5.7,0,10.8-1,15.3-3.1c4.5-2,8.2-5.4,11-10h0.3v10.9h22.6V91.1C184.4,91.1,184.9,83.5,178.4,77.9"/>
<path fill="#234D60" d="M23.7,129.9c0.1-1.7,0.5-3.5,1.1-5.6c0.6-2.1,1.7-4.1,3.2-5.9c1.5-1.9,3.5-3.4,6-4.7  c2.5-1.3,5.7-1.9,9.5-1.9c5.8,0,10.1,1.5,13,4.6c2.8,3.1,4.8,7.6,5.9,13.5H23.7z M76.8,109.6c-3.5-4.7-8-8.5-13.5-11.3  c-5.5-2.8-11.9-4.2-19.2-4.2c-6.6,0-12.6,1.1-18,3.5c-5.4,2.3-10.1,5.5-14,9.5c-3.9,4-6.9,8.8-9,14.3C1.1,126.9,0,132.8,0,139.2  c0,6.6,1,12.6,3.1,18.2c2.1,5.5,5,10.2,8.8,14.2c3.8,4,8.4,7,13.9,9.2c5.5,2.1,11.6,3.2,18.4,3.2c9.8,0,18.2-2.2,25.1-6.6  c6.9-4.4,12-11.7,15.4-21.9H63.7c-0.8,2.6-2.9,5.1-6.4,7.5c-3.5,2.4-7.6,3.6-12.4,3.6c-6.7,0-11.8-1.7-15.4-5.1  c-3.6-3.4-5.5-8.9-5.9-16.5h62.4c0.4-6.6-0.1-12.9-1.7-19C82.9,119.8,80.3,114.4,76.8,109.6"/>
<path fill="#234D60" d="M419.4,103.8c-2.3-3-5.5-5.4-9.6-7.1c-4.1-1.7-9.3-2.6-15.6-2.6c-5,0-9.9,1.1-14.7,3.4  c-4.8,2.3-8.7,5.9-11.7,10.8h-0.5V96.5h-22.6v85.3h23.7V137c0-8.7,1.4-14.9,4.4-18.7c2.9-3.8,7.6-5.7,14-5.7c5.7,0,9.6,1.7,11.9,5.2  c2.2,3.5,3.3,8.7,3.3,15.8v48.2h23.7v-52.5c0-5.3-0.5-10.1-1.4-14.4C423.4,110.5,421.7,106.8,419.4,103.8"/>
<path fill="#234D60" d="M504.2,149.1c-0.7,3.3-1.8,6.2-3.3,8.8c-1.6,2.6-3.7,4.6-6.3,6.2c-2.6,1.5-5.9,2.3-9.8,2.3  c-3.7,0-6.8-0.8-9.5-2.4c-2.6-1.6-4.8-3.7-6.5-6.3c-1.7-2.6-3-5.5-3.8-8.8c-0.8-3.3-1.2-6.6-1.2-9.9c0-3.5,0.4-6.9,1.1-10.1  c0.7-3.2,1.9-6.1,3.5-8.7c1.6-2.5,3.8-4.6,6.4-6.1c2.7-1.5,6-2.3,9.9-2.3c3.9,0,7.1,0.8,9.7,2.3c2.6,1.5,4.7,3.5,6.3,6  c1.6,2.5,2.8,5.3,3.4,8.6c0.7,3.2,1,6.6,1,10.1C505.2,142.4,504.8,145.8,504.2,149.1 M522,77.9c-7.6-6.5-17.7-6.1-17.7-6.1v35H504  c-2.7-4.2-6.3-7.3-10.9-9.5c-4.6-2.1-9.5-3.2-14.6-3.2c-6.4,0-11.9,1.2-16.7,3.7c-4.8,2.5-8.8,5.7-12,9.8c-3.2,4.1-5.6,8.8-7.2,14.1  c-1.6,5.3-2.4,10.9-2.4,16.6c0,5.9,0.8,11.7,2.4,17.2c1.6,5.5,4,10.4,7.2,14.6c3.2,4.2,7.2,7.6,12.1,10.1c4.9,2.5,10.6,3.7,17.1,3.7  c5.7,0,10.8-1,15.3-3.1c4.5-2,8.2-5.4,11-10h0.3v10.9h22.6V91.1C528.1,91.1,528.5,83.5,522,77.9"/>
<path fill="#234D60" d="M320.6,102.5c-6.6-5.7-15.1-6.1-17.2-6.1h0c-0.3,0-0.4,0-0.4,0l0,11.8l0,32.4c0,8.6-1.5,15.4-4.4,19.2  c-2.9,3.8-7.6,5.7-14,5.7c-5.7,0-9.6-1.7-11.9-5.2c-2.2-3.5-3.3-8.7-3.3-15.8V96.5h-23.7v52.5c0,5.3,0.5,10.1,1.4,14.4  c0.9,4.3,2.6,8,4.9,11c2.3,3,5.5,5.4,9.6,7c4.1,1.7,9.3,2.5,15.6,2.5c5,0,9.9-1.1,14.7-3.3c4.8-2.2,8.7-5.8,11.7-10.7h0.5v11.9h22.6  v-14.2h0v-51.8C326.6,115.7,327,108.1,320.6,102.5"/>
<path fill="#234D60" d="M597.2,130.6c2.5-7.9,3.3-16.4,3.4-24.7V81.7c0-0.6,0.1-1.2,0.2-1.8c0.1-15.8,0-31.6,0-47.4  c-12.6,3.9-24.1,9-34,16.9c-11.9,9.4-18.9,21.3-22.9,34.2c-2.5,7.9-3.3,16.4-3.4,24.7c0,8.1,0,16.1,0,24.2c0,0.6-0.1,1.2-0.2,1.8  c-0.1,15.8-0.1,31.6,0,47.4c12.6-3.9,24.1-9,34.1-16.9C586.2,155.4,593.1,143.6,597.2,130.6"/>
<path fill="#234D60" d="M536.9,35.6c-2.1-3.7-5-6.9-8.1-9.9c-3-2.8-6.1-5.6-9.1-8.5c-0.2-0.2-0.4-0.5-0.6-0.7  C513.2,11,507.3,5.5,501.4,0c-3,5.9-5,11.9-5.6,18.3c-0.6,7.6,1.4,14.3,4.8,20.3c2.1,3.7,5,6.9,8.1,9.9c3,2.8,6,5.6,9.1,8.5  c0.2,0.2,0.4,0.5,0.6,0.7c5.9,5.5,11.8,11.1,17.7,16.6c3-6,5-11.9,5.6-18.3C542.3,48.3,540.3,41.6,536.9,35.6"/>
<g>
	<path fill="#234D60" d="M293.9,215.1v2.3h-17.2v-2.3H293.9z"/>
	<path fill="#234D60" d="M308.5,217.4c0.1,4.6,3,6.6,6.5,6.6c2.5,0,3.9-0.4,5.2-1l0.6,2.5c-1.2,0.5-3.3,1.2-6.3,1.2   c-5.8,0-9.3-3.8-9.3-9.5c0-5.7,3.4-10.2,8.9-10.2c6.2,0,7.8,5.4,7.8,8.9c0,0.7-0.1,1.2-0.1,1.6H308.5z M318.5,215   c0-2.2-0.9-5.6-4.8-5.6c-3.5,0-5,3.2-5.3,5.6H318.5z"/>
	<path fill="#234D60" d="M326.3,212.5c0-2,0-3.5-0.2-5.1h3l0.2,3.1h0.1c0.9-1.8,3.1-3.5,6.2-3.5c2.6,0,6.7,1.6,6.7,8v11.3h-3.4   v-10.9c0-3-1.1-5.6-4.4-5.6c-2.3,0-4,1.6-4.6,3.5c-0.2,0.4-0.2,1-0.2,1.6v11.3h-3.4V212.5z"/>
	<path fill="#234D60" d="M372.9,198.5v22.8c0,1.7,0,3.6,0.2,4.9H370l-0.2-3.3h-0.1c-1.1,2.1-3.4,3.7-6.4,3.7c-4.6,0-8.1-3.9-8.1-9.6   c0-6.3,3.9-10.1,8.5-10.1c2.9,0,4.8,1.4,5.7,2.9h0.1v-11.3H372.9z M369.5,215c0-0.4,0-1-0.2-1.4c-0.5-2.2-2.4-4-5-4   c-3.5,0-5.7,3.1-5.7,7.3c0,3.8,1.9,7,5.6,7c2.3,0,4.4-1.5,5-4.1c0.1-0.5,0.2-0.9,0.2-1.5V215z"/>
	<path fill="#234D60" d="M380.7,217.4c0.1,4.6,3,6.6,6.5,6.6c2.5,0,3.9-0.4,5.2-1l0.6,2.5c-1.2,0.5-3.3,1.2-6.3,1.2   c-5.8,0-9.3-3.8-9.3-9.5c0-5.7,3.4-10.2,8.9-10.2c6.2,0,7.8,5.4,7.8,8.9c0,0.7-0.1,1.2-0.1,1.6H380.7z M390.8,215   c0-2.2-0.9-5.6-4.8-5.6c-3.5,0-5,3.2-5.3,5.6H390.8z"/>
	<path fill="#234D60" d="M398.5,198.5h3.4v27.7h-3.4V198.5z"/>
	<path fill="#234D60" d="M426.8,226.2l-0.3-2.4h-0.1c-1.1,1.5-3.1,2.8-5.8,2.8c-3.8,0-5.8-2.7-5.8-5.4c0-4.6,4.1-7.1,11.3-7v-0.4   c0-1.6-0.4-4.4-4.3-4.4c-1.8,0-3.6,0.5-4.9,1.4l-0.8-2.3c1.6-1,3.8-1.7,6.2-1.7c5.8,0,7.2,3.9,7.2,7.7v7.1c0,1.6,0.1,3.2,0.3,4.5   H426.8z M426.3,216.6c-3.7-0.1-8,0.6-8,4.3c0,2.2,1.5,3.3,3.2,3.3c2.5,0,4-1.6,4.6-3.2c0.1-0.4,0.2-0.7,0.2-1.1V216.6z"/>
	<path fill="#234D60" d="M435.7,226.2V210h-2.7v-2.6h2.7v-0.9c0-2.7,0.6-5.1,2.2-6.6c1.3-1.2,3-1.8,4.6-1.8c1.2,0,2.3,0.3,2.9,0.5   l-0.5,2.7c-0.5-0.2-1.2-0.4-2.2-0.4c-2.9,0-3.7,2.6-3.7,5.5v1h4.6v2.6h-4.6v16.3H435.7z"/>
	<path fill="#234D60" d="M455.5,199.9h3.4v12.7h0.1c0.7-1,1.4-2,2.1-2.8l8-9.9h4.2l-9.5,11.2l10.3,15.1h-4l-8.7-12.9l-2.5,2.9v10   h-3.4V199.9z"/>
	<path fill="#234D60" d="M499,214.7c-0.2-3.7-0.4-8.1-0.4-11.3h-0.1c-0.9,3.1-2,6.4-3.3,10l-4.6,12.8H488l-4.3-12.5   c-1.2-3.7-2.3-7.1-3-10.2h-0.1c-0.1,3.3-0.3,7.7-0.5,11.6l-0.7,11.3h-3.2l1.8-26.3h4.3l4.5,12.7c1.1,3.2,2,6.1,2.7,8.9h0.1   c0.7-2.7,1.6-5.5,2.8-8.9l4.7-12.7h4.3l1.6,26.3h-3.3L499,214.7z"/>
	<path fill="#234D60" d="M508.4,200.3c2.1-0.3,4.5-0.5,7.2-0.5c4.9,0,8.3,1.1,10.6,3.3c2.3,2.1,3.7,5.2,3.7,9.4   c0,4.3-1.3,7.8-3.8,10.2c-2.5,2.5-6.5,3.8-11.6,3.8c-2.4,0-4.4-0.1-6.2-0.3V200.3z M511.8,223.5c0.9,0.2,2.1,0.2,3.4,0.2   c7.3,0,11.2-4.1,11.2-11.2c0-6.2-3.5-10.1-10.6-10.1c-1.8,0-3.1,0.2-4,0.4V223.5z"/>
</g>
</svg>