<svg xmlns="http://www.w3.org/2000/svg" xmlns:xlink="http://www.w3.org/1999/xlink" width="138" height="41" viewBox="0 0 138 41">
  <defs>
    <path id="keylone-logo-a" d="M26.0213321,21.2847607 L20.5560574,40.1648006 L39.2439846,21.2781362 L26.0213321,21.2847607 Z M0.993686309,21.2847607 L14.8257997,35.1168742 L19.1119,21.264887 L0.993686309,21.2847607 Z M0.722078718,19.8538525 L12.3482085,19.8538525 L9.37377418,11.2087816 L0.722078718,19.8538525 Z M26.4386804,19.8538525 L39.5222168,19.8538525 L29.4197393,9.54601314 L26.4386804,19.8538525 Z M15.4882573,5.0876739 L19.5888694,19.8538525 L24.0074612,4.15360877 L20.2248287,0.351102496 L15.4882573,5.0876739 Z"/>
    <radialGradient id="keylone-logo-b" cx="42.258%" cy="38.943%" r="34.699%" fx="42.258%" fy="38.943%">
      <stop offset="0%" stop-color="#FFCC07"/>
      <stop offset="34.43%" stop-color="#F8AC08"/>
      <stop offset="59.51%" stop-color="#F39208"/>
      <stop offset="82.55%" stop-color="#D97511"/>
      <stop offset="100%" stop-color="#CA6316"/>
    </radialGradient>
  </defs>
  <g fill="none" fill-rule="evenodd" transform="translate(-1)">
    <polygon fill="#727070" fill-rule="nonzero" points="54.997 4.392 54.997 17.953 60.277 4.392 64.133 4.392 58.416 18.449 64.583 32.626 60.277 32.626 54.997 18.324 54.997 32.626 51.181 32.626 51.181 4.392"/>
    <g fill="#727070" fill-rule="nonzero" transform="translate(64.424 1.49)">
      <path d="M3.80913085,22.3778157 C3.80913085,23.94784 3.73626052,28.2935615 6.01511446,28.2935615 C7.88324472,28.2935615 8.22772264,26.2333186 8.22772264,24.7692874 L11.4870137,24.7692874 C11.4870137,28.253814 9.95011224,31.4336102 5.98199158,31.4336102 C0.702204992,31.4336102 0.218610988,25.8159703 0.218610988,21.8147268 C0.218610988,17.9592239 0.662457539,11.9242357 5.87599837,11.9242357 C11.0034197,11.9242357 11.5996315,17.9128519 11.5996315,21.8147268 L11.5996315,22.3778157 L3.80913085,22.3778157 L3.80913085,22.3778157 Z M8.00248707,19.8671016 C8.00248707,18.409695 8.00248707,15.0775336 5.8693738,15.0775336 C3.65676562,15.0775336 3.80913085,18.409695 3.80913085,19.8671016 L8.00248707,19.8671016 L8.00248707,19.8671016 Z"/>
      <rect width="3.524" height="31.076" x="28.221" y=".06"/>
      <path d="M42.4436545 28.7042852L42.3707842 28.7042852C41.6619546 30.3538044 40.9133776 31.4336102 38.8862576 31.4336102 34.5074132 31.4336102 34.4279183 24.510929 34.4279183 21.437126 34.4279183 18.2970772 34.5405361 11.9242357 38.9988753 11.9242357 40.6483946 11.9242357 41.7282004 12.9377957 42.3707842 14.322332L42.4436545 14.322332 42.4436545 12.2289662 45.9613041 12.2289662 45.9613041 31.1355043 42.4436545 31.1355043 42.4436545 28.7042852 42.4436545 28.7042852zM42.5628969 21.6623615C42.5628969 20.1718321 42.7086376 15.0775336 40.3502887 15.0775336 37.7269569 15.0775336 38.0250628 20.1320846 38.0250628 21.6623615 38.0250628 23.2390105 37.7269569 28.2935615 40.3502887 28.2935615 42.7086376 28.2935615 42.5628969 23.1661401 42.5628969 21.6623615M52.7448693 14.4018269L52.8177396 14.4018269C53.2284633 13.620127 53.7186819 13.0172906 54.3148936 12.606567 54.9508529 12.1627204 55.6994299 11.9308603 56.633495 11.9308603 60.3763801 11.9308603 60.4889979 15.2630217 60.4889979 18.144712L60.4889979 31.1355043 56.9713484 31.1355043 56.9713484 18.0718417C56.9713484 16.7601757 56.7461128 15.0775336 54.871358 15.0775336 52.5527566 15.0775336 52.7382447 17.7406129 52.7382447 19.3437601L52.7382447 31.1355043 49.2205952 31.1355043 49.2205952 12.2289662 52.7382447 12.2289662 52.7382447 14.4018269 52.7448693 14.4018269zM66.7823445 22.3778157C66.7823445 23.94784 66.7094742 28.2935615 68.9883281 28.2935615 70.863083 28.2935615 71.2009363 26.2333186 71.2009363 24.7692874L74.4602274 24.7692874C74.4602274 28.253814 72.9233259 31.4336102 68.9552053 31.4336102 63.6754187 31.4336102 63.1918247 25.8159703 63.1918247 21.8147268 63.1918247 17.9592239 63.6422958 11.9242357 68.8425875 11.9242357 73.9766334 11.9242357 74.5728452 17.9128519 74.5728452 21.8147268L74.5728452 22.3778157 66.7823445 22.3778157 66.7823445 22.3778157zM70.9757008 19.8671016C70.9757008 18.409695 70.9757008 15.0775336 68.8425875 15.0775336 66.6366039 15.0775336 66.7823445 18.409695 66.7823445 19.8671016L70.9757008 19.8671016 70.9757008 19.8671016z"/>
      <polygon points="12.792 12.229 15.694 24.325 19.344 24.325 16.727 12.229"/>
      <polygon points="22.755 12.229 19.344 24.325 14.885 38.893 18.595 38.893 26.306 12.229"/>
      <polygon points="12.792 12.229 15.694 24.325 19.344 24.325 16.727 12.229"/>
      <polygon points="22.755 12.229 19.344 24.325 14.885 38.893 18.595 38.893 26.306 12.229"/>
    </g>
    <g transform="translate(.212 .517)">
      <mask id="keylone-logo-c" fill="#fff">
        <use xlink:href="#keylone-logo-a"/>
      </mask>
      <use fill="#FFF" fill-rule="nonzero" xlink:href="#keylone-logo-a"/>
      <polygon fill="url(#keylone-logo-b)" fill-rule="nonzero" points="-19.046 20.258 20.258 59.568 59.568 20.258 20.258 -19.046" mask="url(#keylone-logo-c)"/>
    </g>
  </g>
</svg>