<svg width="141" height="24" viewBox="0 0 141 24" fill="none" xmlns="http://www.w3.org/2000/svg">
<g clip-path="url(#clip0_1469_8032)">
<path d="M23.5969 12.4485C22.1591 12.4485 20.8462 13.0085 19.7931 13.9434C18.9468 13.317 18.009 12.8424 17.0136 12.5292C17.5907 12.121 18.086 11.5942 18.4514 10.9678C19.947 10.9393 21.3656 10.4267 22.438 9.3684C23.7508 8.07277 24.2413 6.25984 24.0105 4.41843C23.7171 4.38046 23.4142 4.36623 23.116 4.36623C21.5676 4.36623 20.1009 4.87878 18.9948 5.97034C17.8888 7.0619 17.3695 8.51414 17.3695 10.0423C16.8693 11.0627 15.9268 11.7793 14.8256 12.0024V8.58058C15.9028 7.50326 16.5616 6.12221 16.5616 4.59877C16.5616 2.76686 15.6142 1.13902 14.1283 0C12.6424 1.13427 11.695 2.76211 11.695 4.59877C11.695 6.12221 12.3538 7.50801 13.4262 8.58058V12.0214C12.2913 11.8173 11.3151 11.1007 10.7958 10.0613C10.7958 8.52838 10.2812 7.06664 9.17038 5.97508C8.06435 4.88353 6.59766 4.37097 5.04921 4.37097C4.75587 4.37097 4.45772 4.38521 4.15476 4.42318C3.91913 6.26458 4.40963 8.07752 5.72725 9.37315C6.79482 10.4267 8.20862 10.9393 9.70417 10.9725C10.0744 11.6085 10.5794 12.1448 11.1709 12.5529C10.1995 12.8661 9.2858 13.3312 8.45868 13.9434C7.40554 13.0133 6.09273 12.4485 4.65488 12.4485C2.79867 12.4485 1.14924 13.3834 -0.00488281 14.8499C1.14443 16.3164 2.79386 17.2513 4.65488 17.2513C6.06868 17.2513 7.36226 16.7103 8.40578 15.8038C8.44425 15.7706 8.48272 15.7327 8.52119 15.6994C8.5789 15.6472 8.63179 15.595 8.68469 15.5428C10.0023 14.3563 11.6517 13.6492 13.4214 13.5021V16.6059C9.55028 16.9476 6.48705 20.1084 6.30912 24.0047H7.7085C7.85276 20.8487 10.3053 18.3334 13.4262 17.9964V23.9715H14.8256V17.9964C17.9417 18.3239 20.4038 20.844 20.5577 24.0047H21.9571C21.7695 20.1036 18.6967 16.9381 14.8256 16.6059V13.5068C16.5952 13.6539 18.2495 14.3658 19.5671 15.5523C19.62 15.5998 19.6681 15.652 19.721 15.6994C19.7594 15.7374 19.8027 15.7754 19.8412 15.8133C20.8847 16.715 22.1783 17.2608 23.5921 17.2608C25.4483 17.2608 27.0977 16.3259 28.2519 14.8594C27.1026 13.3929 25.4531 12.458 23.5921 12.458L23.5969 12.4485ZM19.9807 6.95274C20.8222 6.12221 21.8224 5.84695 22.6496 5.77101C22.5582 6.80562 22.1543 7.71208 21.4522 8.39549C20.6106 9.22602 19.6104 9.50129 18.7833 9.57722C18.8746 8.54261 19.2786 7.63615 19.9807 6.95274ZM13.0896 4.59877C13.0896 3.63061 13.4551 2.69567 14.1235 1.9031C14.8015 2.70042 15.1574 3.62112 15.1574 4.59877C15.1574 5.57643 14.7919 6.50188 14.1235 7.29444C13.4454 6.49713 13.0896 5.56694 13.0896 4.59877ZM6.71307 8.39549C6.01098 7.70259 5.60703 6.80087 5.51567 5.77101C6.33317 5.8422 7.34303 6.12221 8.18457 6.95274C8.87705 7.64564 9.29061 8.54736 9.38197 9.57722C8.56447 9.50603 7.55461 9.22602 6.71307 8.39549ZM4.65007 15.8703C3.66426 15.8703 2.72173 15.5096 1.91865 14.8499C2.72654 14.1807 3.66907 13.8295 4.65007 13.8295C5.63108 13.8295 6.57842 14.1902 7.3815 14.8499C6.57361 15.5191 5.6407 15.8703 4.65007 15.8703ZM23.5921 15.8703C22.6063 15.8703 21.6638 15.5096 20.8607 14.8499C21.6686 14.1807 22.6111 13.8295 23.5921 13.8295C24.5731 13.8295 25.5204 14.1902 26.3235 14.8499C25.5156 15.5191 24.5827 15.8703 23.5921 15.8703Z" fill="#F1F7F6"/>
<path d="M47.9105 5.96582C49.3002 5.96582 50.4159 6.41193 51.2622 7.29942C52.123 8.16317 52.551 9.35439 52.551 10.8826V17.7072H50.1851V11.2622C50.1851 10.2703 49.9494 9.50626 49.4782 8.96048C49.0069 8.4147 48.3625 8.14419 47.545 8.14419C46.6842 8.14419 45.987 8.43369 45.4484 9.01269C44.9098 9.59169 44.6405 10.3605 44.6405 11.3239V17.7024H42.2793V11.3002C42.2793 10.3226 42.0389 9.55372 41.558 8.98896C41.0771 8.4242 40.4279 8.14419 39.6152 8.14419C38.7545 8.14419 38.0524 8.43843 37.509 9.02218C36.9656 9.60592 36.6915 10.389 36.6915 11.3619V17.7024H34.3303V6.28854H36.6482V7.94011C36.9944 7.33264 37.4705 6.8533 38.086 6.49736C38.7016 6.14142 39.3892 5.96582 40.149 5.96582C40.9377 5.98006 41.6542 6.16989 42.2986 6.54007C42.943 6.90551 43.419 7.41806 43.7172 8.06351C44.1163 7.42756 44.6934 6.91975 45.4436 6.54007C46.1985 6.15566 47.016 5.96582 47.9057 5.96582H47.9105Z" fill="#F1F7F6"/>
<path d="M63.9579 7.87797V6.28809H66.2373V17.7115H63.9579V16.1406C62.9144 17.3698 61.5968 17.9867 60.0051 17.9867C58.3268 17.9867 56.9467 17.4077 55.8599 16.2497C54.7731 15.0917 54.2249 13.649 54.2249 11.9262C54.2249 10.2035 54.7683 8.80342 55.8599 7.68813C56.9467 6.57285 58.3268 6.01758 60.0051 6.01758C61.6834 6.01758 62.9144 6.63929 63.9579 7.88272V7.87797ZM60.3273 15.8463C61.3996 15.8463 62.2941 15.4714 63.0106 14.7216C63.7127 13.9859 64.0637 13.0747 64.0637 11.9879C64.0637 10.9011 63.7127 10.0089 63.0106 9.27326C62.2941 8.52816 61.3996 8.15323 60.3273 8.15323C59.2549 8.15323 58.3268 8.52816 57.6439 9.27326C56.9563 10.0089 56.61 10.9201 56.61 12.0069C56.61 13.0937 56.9563 14.0097 57.6439 14.7405C58.3316 15.4761 59.226 15.8463 60.3273 15.8463Z" fill="#F1F7F6"/>
<path d="M71.1084 17.7116H68.7473V6.28825H71.0652V7.89711C71.4114 7.30387 71.9019 6.83877 72.5463 6.49707C73.1907 6.15536 73.9216 5.98926 74.7343 5.98926C76.0087 5.98926 77.0858 6.3974 77.9562 7.21845C78.8459 8.05372 79.2883 9.23071 79.2883 10.7589V17.7116H76.9031V11.4138C76.9031 10.3792 76.653 9.5819 76.1529 9.00765C75.6528 8.43814 74.9796 8.14864 74.1332 8.14864C73.2436 8.14864 72.5223 8.45712 71.9548 9.06934C71.3874 9.68157 71.1036 10.4789 71.1036 11.4565V17.7116H71.1084Z" fill="#F1F7F6"/>
<path d="M90.7183 7.75067V6.28893H92.9977V16.5496C92.9977 18.3862 92.4255 19.848 91.281 20.9348C90.1316 22.0216 88.6169 22.5674 86.727 22.5674C84.8371 22.5674 83.0819 22.0216 81.5479 20.9348L82.577 19.1313C83.8513 20.0378 85.2218 20.4887 86.6789 20.4887C87.8955 20.4887 88.8621 20.1517 89.5786 19.4825C90.2951 18.8134 90.651 17.9401 90.651 16.8628V16.037C89.6315 17.1665 88.3379 17.7313 86.7606 17.7313C85.0727 17.7313 83.683 17.176 82.5962 16.056C81.5094 14.9407 80.9612 13.5407 80.9612 11.8606C80.9612 10.1806 81.5286 8.78528 82.6587 7.68423C83.7936 6.56894 85.193 6.01367 86.8664 6.01367C88.4005 6.01367 89.6796 6.59267 90.7135 7.75067H90.7183ZM87.0684 15.6573C88.1408 15.6573 89.0304 15.2966 89.7325 14.5753C90.4346 13.8681 90.7856 12.9712 90.7856 11.8843C90.7856 10.7975 90.4346 9.88632 89.7325 9.19342C89.016 8.48628 88.1312 8.13509 87.0684 8.13509C86.0057 8.13509 85.1401 8.49578 84.4235 9.21715C83.7215 9.91005 83.3704 10.7975 83.3704 11.8891C83.3704 12.9806 83.7215 13.8966 84.4235 14.6037C85.1401 15.3109 86.0201 15.6621 87.0684 15.6621V15.6573Z" fill="#F1F7F6"/>
<path d="M97.8741 17.7126H95.5129V6.28923H97.7683V7.92181C98.456 6.63568 99.5524 5.99023 101.058 5.99023C101.543 5.99023 102.005 6.05668 102.433 6.18007L102.221 8.44861C101.837 8.30623 101.413 8.23979 100.957 8.23979C100.024 8.23979 99.2783 8.54827 98.7204 9.16999C98.1626 9.7917 97.8837 10.6887 97.8837 11.8657V17.7173L97.8741 17.7126Z" fill="#F1F7F6"/>
<path d="M102.361 11.989C102.361 10.3327 102.933 8.9232 104.082 7.75096C105.241 6.57873 106.708 5.99023 108.487 5.99023C110.266 5.99023 111.723 6.57873 112.868 7.75096C114.027 8.90896 114.609 10.3232 114.609 11.989C114.609 13.6549 114.032 15.1118 112.868 16.2746C111.733 17.4326 110.276 18.0116 108.487 18.0116C106.698 18.0116 105.246 17.4326 104.082 16.2746C102.933 15.1024 102.361 13.6738 102.361 11.989ZM112.224 11.989C112.224 10.945 111.858 10.048 111.127 9.29812C110.425 8.53404 109.545 8.15436 108.487 8.15436C107.429 8.15436 106.554 8.53404 105.823 9.29812C105.106 10.048 104.751 10.945 104.751 11.989C104.751 13.0331 105.111 13.9538 105.823 14.7037C106.554 15.4536 107.439 15.8285 108.487 15.8285C109.535 15.8285 110.411 15.4536 111.127 14.7037C111.858 13.9538 112.224 13.0474 112.224 11.989Z" fill="#F1F7F6"/>
<path d="M120.601 14.4471L123.91 6.28418H126.506L121.438 17.6886H119.721L114.653 6.28418H117.273L120.601 14.4471Z" fill="#F1F7F6"/>
<path d="M138.148 11.7752C138.148 12.1406 138.119 12.5156 138.062 12.9H129.016C129.189 13.8159 129.598 14.5468 130.252 15.0831C130.901 15.6194 131.772 15.8899 132.863 15.8899C133.522 15.8899 134.21 15.776 134.936 15.5529C135.657 15.3251 136.278 15.0309 136.792 14.6607L137.778 16.3787C136.33 17.437 134.662 17.9686 132.772 17.9686C130.738 17.9686 129.194 17.3848 128.141 16.2079C127.088 15.0309 126.564 13.6213 126.564 11.9698C126.564 10.3182 127.107 8.82324 128.194 7.70796C129.295 6.57843 130.723 6.01367 132.469 6.01367C134.215 6.01367 135.503 6.53097 136.547 7.56083C137.59 8.59069 138.139 10.0145 138.139 11.7799L138.148 11.7752ZM132.479 8.02119C131.589 8.02119 130.834 8.29645 130.209 8.83748C129.584 9.37851 129.189 10.0999 129.016 10.9874H135.758C135.657 10.0951 135.306 9.37851 134.695 8.83748C134.085 8.2917 133.349 8.02119 132.474 8.02119H132.479Z" fill="#F1F7F6"/>
</g>
<defs>
<clipPath id="clip0_1469_8032">
<rect width="141" height="24" fill="white"/>
</clipPath>
</defs>
</svg>
