<svg width="462" height="79" viewBox="0 0 462 79" fill="none" xmlns="http://www.w3.org/2000/svg">
<g clip-path="url(#clip0_118_590)">
<path d="M77.3174 40.6618C72.6062 40.6618 68.3046 42.491 64.8539 45.5449C62.0808 43.4986 59.0082 41.9484 55.7466 40.9253C57.6374 39.5921 59.2603 37.8714 60.4578 35.8252C65.3581 35.7321 70.0063 34.0579 73.5201 30.601C77.8216 26.3689 79.4288 20.4472 78.6725 14.4324C77.7113 14.3084 76.7187 14.2619 75.7418 14.2619C70.6681 14.2619 65.8623 15.9361 62.2383 19.5015C58.6143 23.067 56.9126 27.8106 56.9126 32.8023C55.2739 36.1352 52.1856 38.476 48.5773 39.2046V28.0276C52.1068 24.5087 54.2655 19.9976 54.2655 15.0214C54.2655 9.03767 51.1614 3.72048 46.2926 0C41.4238 3.70498 38.3198 9.02217 38.3198 15.0214C38.3198 19.9976 40.4784 24.5242 43.9922 28.0276V39.2666C40.2736 38.6 37.075 36.2592 35.3733 32.8643C35.3733 27.8571 33.6873 23.0825 30.0475 19.517C26.4235 15.9516 21.6177 14.2774 16.5441 14.2774C15.5829 14.2774 14.606 14.3239 13.6134 14.4479C12.8413 20.4627 14.4485 26.3844 18.7658 30.6165C22.2638 34.0579 26.8962 35.7321 31.7965 35.8407C33.0098 37.9179 34.6642 39.6697 36.6023 41.0028C33.4195 42.026 30.4257 43.5452 27.7156 45.5449C24.2649 42.5065 19.9633 40.6618 15.2521 40.6618C9.17 40.6618 3.76548 43.7157 -0.0161133 48.5058C3.74972 53.2959 9.15425 56.3498 15.2521 56.3498C19.8845 56.3498 24.123 54.5826 27.5422 51.6217C27.6683 51.5132 27.7943 51.3892 27.9204 51.2807C28.1095 51.1101 28.2828 50.9396 28.4561 50.7691C32.7734 46.8936 38.178 44.5838 43.9764 44.1032V54.2415C31.2923 55.3577 21.2553 65.682 20.6723 78.4092H25.2575C25.7302 68.1003 33.7661 59.8843 43.9922 58.7836V78.3007H48.5773V58.7836C58.7876 59.8533 66.855 68.0848 67.3592 78.4092H71.9444C71.3299 65.6665 61.2614 55.3267 48.5773 54.2415V44.1187C54.3758 44.5993 59.796 46.9246 64.1134 50.8001C64.2867 50.9551 64.4442 51.1256 64.6176 51.2807C64.7436 51.4047 64.8854 51.5287 65.0115 51.6527C68.4307 54.5981 72.6692 56.3808 77.3017 56.3808C83.3837 56.3808 88.7882 53.3269 92.5698 48.5368C88.804 43.7467 83.3995 40.6928 77.3017 40.6928L77.3174 40.6618ZM65.4684 22.7104C68.2258 19.9976 71.5032 19.0985 74.2134 18.8504C73.914 22.2299 72.5904 25.1908 70.29 27.4231C67.5326 30.1359 64.2552 31.035 61.545 31.2831C61.8444 27.9036 63.168 24.9427 65.4684 22.7104ZM42.8892 15.0214C42.8892 11.859 44.0867 8.80514 46.2769 6.21631C48.4985 8.82065 49.6645 11.828 49.6645 15.0214C49.6645 18.2149 48.467 21.2378 46.2769 23.8266C44.0552 21.2223 42.8892 18.1839 42.8892 15.0214ZM21.9959 27.4231C19.6954 25.1598 18.3719 22.2144 18.0725 18.8504C20.7511 19.083 24.06 19.9976 26.8174 22.7104C29.0864 24.9737 30.4415 27.9191 30.7408 31.2831C28.0622 31.0505 24.7533 30.1359 21.9959 27.4231ZM15.2363 51.8387C12.0062 51.8387 8.9179 50.6606 6.28654 48.5058C8.93365 46.32 12.022 45.1729 15.2363 45.1729C18.4507 45.1729 21.5547 46.351 24.1861 48.5058C21.539 50.6916 18.4822 51.8387 15.2363 51.8387ZM77.3017 51.8387C74.0716 51.8387 70.9833 50.6606 68.3519 48.5058C70.999 46.32 74.0873 45.1729 77.3017 45.1729C80.516 45.1729 83.6201 46.351 86.2514 48.5058C83.6043 50.6916 80.5475 51.8387 77.3017 51.8387Z" fill="#021B1A"/>
<path d="M156.984 19.4861C161.537 19.4861 165.193 20.9433 167.966 23.8421C170.786 26.6635 172.189 30.5545 172.189 35.5462V57.8381H164.436V36.7863C164.436 33.5464 163.664 31.0506 162.12 29.2679C160.576 27.4851 158.465 26.6015 155.786 26.6015C152.966 26.6015 150.681 27.5471 148.916 29.4384C147.151 31.3296 146.269 33.8409 146.269 36.9879V57.8226H138.533V36.9103C138.533 33.7169 137.745 31.2056 136.169 29.3609C134.593 27.5161 132.466 26.6015 129.803 26.6015C126.983 26.6015 124.682 27.5626 122.902 29.4694C121.121 31.3761 120.223 33.934 120.223 37.1119V57.8226H112.487V20.5402H120.082V25.9349C121.216 23.9507 122.776 22.385 124.793 21.2223C126.81 20.0597 129.063 19.4861 131.552 19.4861C134.136 19.5326 136.484 20.1527 138.596 21.3618C140.707 22.5555 142.267 24.2297 143.244 26.338C144.552 24.2607 146.442 22.602 148.9 21.3618C151.374 20.1062 154.053 19.4861 156.968 19.4861H156.984Z" fill="#021B1A"/>
<path d="M209.563 25.7333V20.5401H217.032V57.8534H209.563V52.7223C206.144 56.7373 201.827 58.7526 196.611 58.7526C191.112 58.7526 186.59 56.8613 183.029 53.0788C179.468 49.2963 177.672 44.5837 177.672 38.9565C177.672 33.3293 179.452 28.7562 183.029 25.1132C186.59 21.4702 191.112 19.6565 196.611 19.6565C202.11 19.6565 206.144 21.6873 209.563 25.7488V25.7333ZM197.667 51.7612C201.181 51.7612 204.111 50.5365 206.459 48.0872C208.76 45.6844 209.91 42.708 209.91 39.158C209.91 35.6081 208.76 32.6937 206.459 30.2909C204.111 27.8571 201.181 26.6324 197.667 26.6324C194.153 26.6324 191.112 27.8571 188.875 30.2909C186.622 32.6937 185.487 35.6701 185.487 39.22C185.487 42.77 186.622 45.7619 188.875 48.1492C191.128 50.552 194.059 51.7612 197.667 51.7612Z" fill="#021B1A"/>
<path d="M232.994 57.8534H225.257V20.5401H232.852V25.7953C233.986 23.8575 235.594 22.3383 237.705 21.2222C239.816 20.106 242.211 19.5635 244.874 19.5635C249.05 19.5635 252.579 20.8966 255.431 23.5785C258.346 26.3069 259.796 30.1514 259.796 35.143V57.8534H251.981V37.2823C251.981 33.9028 251.161 31.2985 249.523 29.4228C247.884 27.5625 245.678 26.6169 242.905 26.6169C239.99 26.6169 237.626 27.6245 235.767 29.6243C233.908 31.624 232.978 34.2284 232.978 37.4218V57.8534H232.994Z" fill="#021B1A"/>
<path d="M297.249 25.3148V20.5402H304.718V54.0556C304.718 60.0549 302.843 64.8295 299.093 68.3794C295.327 71.9294 290.363 73.7121 284.171 73.7121C277.979 73.7121 272.227 71.9294 267.201 68.3794L270.573 62.4887C274.749 65.4496 279.239 66.9222 284.013 66.9222C288 66.9222 291.167 65.8216 293.515 63.6358C295.862 61.45 297.028 58.5977 297.028 55.0787V52.3814C293.688 56.0708 289.449 57.9156 284.281 57.9156C278.751 57.9156 274.197 56.1018 270.636 52.4434C267.075 48.8004 265.279 44.2273 265.279 38.7396C265.279 33.2519 267.138 28.6943 270.841 25.0978C274.559 21.4548 279.145 19.6411 284.628 19.6411C289.654 19.6411 293.846 21.5324 297.233 25.3148H297.249ZM285.29 51.1412C288.803 51.1412 291.718 49.963 294.019 47.6067C296.319 45.2969 297.47 42.3671 297.47 38.8171C297.47 35.2671 296.319 32.2908 294.019 30.0275C291.671 27.7177 288.772 26.5705 285.29 26.5705C281.808 26.5705 278.971 27.7487 276.624 30.105C274.323 32.3683 273.173 35.2671 273.173 38.8326C273.173 42.3981 274.323 45.39 276.624 47.6998C278.971 50.0096 281.855 51.1567 285.29 51.1567V51.1412Z" fill="#021B1A"/>
<path d="M320.695 57.8534H312.958V20.5401H320.348V25.8728C322.601 21.6718 326.194 19.5635 331.125 19.5635C332.717 19.5635 334.229 19.7805 335.632 20.1836L334.939 27.5935C333.678 27.1285 332.291 26.9114 330.795 26.9114C327.738 26.9114 325.295 27.9191 323.468 29.9498C321.64 31.9806 320.726 34.9105 320.726 38.755V57.8689L320.695 57.8534Z" fill="#021B1A"/>
<path d="M335.396 39.158C335.396 33.7478 337.271 29.1437 341.036 25.3147C344.834 21.4857 349.64 19.5635 355.469 19.5635C361.299 19.5635 366.074 21.4857 369.824 25.3147C373.621 29.0972 375.528 33.7168 375.528 39.158C375.528 44.5992 373.637 49.3583 369.824 53.1563C366.105 56.9388 361.331 58.8301 355.469 58.8301C349.608 58.8301 344.849 56.9388 341.036 53.1563C337.271 49.3273 335.396 44.6612 335.396 39.158ZM367.712 39.158C367.712 35.7476 366.515 32.8177 364.12 30.3684C361.819 27.8726 358.936 26.6324 355.469 26.6324C352.003 26.6324 349.135 27.8726 346.74 30.3684C344.393 32.8177 343.227 35.7476 343.227 39.158C343.227 42.5685 344.408 45.5759 346.74 48.0252C349.135 50.4745 352.035 51.6991 355.469 51.6991C358.904 51.6991 361.772 50.4745 364.12 48.0252C366.515 45.5759 367.712 42.615 367.712 39.158Z" fill="#021B1A"/>
<path d="M395.161 47.1881L406.001 20.5247H414.51L397.903 57.776H392.277L375.67 20.5247H384.257L395.161 47.1881Z" fill="#021B1A"/>
<path d="M452.657 38.4606C452.657 39.6542 452.563 40.8789 452.374 42.1345H422.736C423.303 45.1264 424.642 47.5137 426.785 49.2655C428.912 51.0172 431.764 51.9008 435.341 51.9008C437.5 51.9008 439.753 51.5287 442.132 50.8002C444.495 50.0561 446.528 49.0949 448.214 47.8858L451.444 53.4975C446.701 56.9545 441.234 58.6907 435.042 58.6907C428.376 58.6907 423.319 56.7839 419.868 52.9394C416.417 49.0949 414.7 44.4908 414.7 39.0961C414.7 33.7014 416.48 28.8183 420.041 25.1753C423.649 21.4859 428.329 19.6411 434.049 19.6411C439.768 19.6411 443.991 21.3308 447.41 24.6948C450.83 28.0587 452.626 32.7093 452.626 38.4761L452.657 38.4606ZM434.08 26.1985C431.165 26.1985 428.692 27.0976 426.643 28.8648C424.595 30.632 423.303 32.9883 422.736 35.8872H444.826C444.495 32.9728 443.345 30.632 441.344 28.8648C439.343 27.0821 436.932 26.1985 434.065 26.1985H434.08Z" fill="#021B1A"/>
</g>
<defs>
<clipPath id="clip0_118_590">
<rect width="462" height="78.3937" fill="white"/>
</clipPath>
</defs>
</svg>
