<?xml version="1.0" encoding="UTF-8" standalone="no"?>
<svg
   xmlns:dc="http://purl.org/dc/elements/1.1/"
   xmlns:cc="http://creativecommons.org/ns#"
   xmlns:rdf="http://www.w3.org/1999/02/22-rdf-syntax-ns#"
   xmlns:svg="http://www.w3.org/2000/svg"
   xmlns="http://www.w3.org/2000/svg"
   xmlns:sodipodi="http://sodipodi.sourceforge.net/DTD/sodipodi-0.dtd"
   xmlns:inkscape="http://www.inkscape.org/namespaces/inkscape"
   width="240"
   height="58"
   viewBox="0 0 63.50004 15.345843"
   version="1.1"
   id="svg8"
   inkscape:version="1.0.2 (e86c870879, 2021-01-15, custom)"
   sodipodi:docname="logo6_wofont.svg">
  <defs
     id="defs2" />
  <sodipodi:namedview
     id="base"
     pagecolor="#ffffff"
     bordercolor="#666666"
     borderopacity="1.0"
     inkscape:pageopacity="0.50980392"
     inkscape:pageshadow="2"
     inkscape:zoom="1.979899"
     inkscape:cx="113.6601"
     inkscape:cy="95.394551"
     inkscape:document-units="mm"
     inkscape:current-layer="layer1"
     inkscape:document-rotation="0"
     showgrid="false"
     inkscape:window-width="1207"
     inkscape:window-height="734"
     inkscape:window-x="2290"
     inkscape:window-y="473"
     inkscape:window-maximized="0"
     units="px" />
  <metadata
     id="metadata5">
    <rdf:RDF>
      <cc:Work
         rdf:about="">
        <dc:format>image/svg+xml</dc:format>
        <dc:type
           rdf:resource="http://purl.org/dc/dcmitype/StillImage" />
        <dc:title></dc:title>
      </cc:Work>
    </rdf:RDF>
  </metadata>
  <g
     inkscape:label="Lag 1"
     inkscape:groupmode="layer"
     id="layer1">
    <g
       aria-label="TED Consulting"
       id="text12"
       style="font-style:normal;font-variant:normal;font-weight:normal;font-stretch:normal;font-size:9.87778px;line-height:1.25;font-family:'Fjalla One';-inkscape-font-specification:'Fjalla One, Normal';font-variant-ligatures:normal;font-variant-caps:normal;font-variant-numeric:normal;font-variant-east-asian:normal;fill:#d40000;stroke-width:0.264583">
      <path
         d="M 3.2871372,2.1588605 H 1.9607752 V 1.174941 H 5.857868 V 2.1588605 H 4.5363291 V 9.4128551 H 3.2871372 Z"
         style="font-style:normal;font-variant:normal;font-weight:normal;font-stretch:normal;font-size:9.87778px;font-family:'Fjalla One';-inkscape-font-specification:'Fjalla One, Normal';font-variant-ligatures:normal;font-variant-caps:normal;font-variant-numeric:normal;font-variant-east-asian:normal;fill:#333333;fill-opacity:1;stroke-width:0.264583"
         id="path843" />
      <path
         d="M 6.7019165,1.174941 H 9.7549608 V 2.1588605 H 7.9511084 v 2.4646218 h 1.393886 V 5.6074018 H 7.9511084 V 8.4289357 H 9.8031922 V 9.4128551 H 6.7019165 Z"
         style="font-style:normal;font-variant:normal;font-weight:normal;font-stretch:normal;font-size:9.87778px;font-family:'Fjalla One';-inkscape-font-specification:'Fjalla One, Normal';font-variant-ligatures:normal;font-variant-caps:normal;font-variant-numeric:normal;font-variant-east-asian:normal;fill:#333333;fill-opacity:1;stroke-width:0.264583"
         id="path845" />
      <path
         d="m 10.705118,1.174941 h 1.297424 q 0.294211,0 0.607715,0.019292 0.318327,0.014469 0.617361,0.1012859 0.303857,0.086816 0.56913,0.2700955 0.270095,0.178456 0.472667,0.5064292 0.202572,0.32315 0.318327,0.8199329 0.120578,0.4919597 0.120578,1.2057837 v 2.3922748 q 0,0.7138239 -0.120578,1.2106068 -0.115755,0.4967829 -0.318327,0.8199329 -0.202572,0.32315 -0.472667,0.5064292 -0.265273,0.178456 -0.56913,0.2652724 -0.299034,0.086816 -0.617361,0.1061089 -0.313504,0.014469 -0.607715,0.014469 h -1.297424 z m 1.567519,7.3649268 q 0.33762,0 0.554661,-0.086816 0.221864,-0.086816 0.347265,-0.3038575 0.130225,-0.2218642 0.178456,-0.5980687 0.04823,-0.3810276 0.04823,-0.9598038 V 4.0350599 q 0,-0.5787762 -0.04823,-0.9549807 Q 13.304788,2.6990516 13.174563,2.4820105 13.049162,2.2601463 12.827298,2.1733299 12.610257,2.0865135 12.272637,2.0865135 H 11.95431 v 6.4533543 z"
         style="font-style:normal;font-variant:normal;font-weight:normal;font-stretch:normal;font-size:9.87778px;font-family:'Fjalla One';-inkscape-font-specification:'Fjalla One, Normal';font-variant-ligatures:normal;font-variant-caps:normal;font-variant-numeric:normal;font-variant-east-asian:normal;fill:#333333;fill-opacity:1;stroke-width:0.264583"
         id="path847" />
      <path
         d="m 19.709911,9.4852022 q -0.192925,0 -0.419612,-0.033762 Q 19.068435,9.4225014 18.841747,9.3212156 18.619883,9.2199298 18.412488,9.0366506 18.209917,8.8485484 18.050753,8.5446909 17.896413,8.2408334 17.79995,7.797105 17.708311,7.3485535 17.708311,6.7311922 V 3.8131957 q 0,-0.6221844 0.09646,-1.0610896 0.09646,-0.4437284 0.255626,-0.7427628 0.159164,-0.3038575 0.366559,-0.4823135 0.207394,-0.1784559 0.429259,-0.2700955 0.221864,-0.096463 0.438905,-0.1254015 0.221864,-0.028939 0.409966,-0.028939 0.49196,0 0.819933,0.1398709 0.332797,0.1350478 0.530545,0.3762045 0.202572,0.2363336 0.284565,0.5546605 0.08682,0.3183269 0.08682,0.6752389 0,0.2652724 -0.02894,0.4919597 -0.02412,0.2218642 -0.07717,0.4919597 H 20.30798 V 3.4128755 q 0,-0.680062 -0.149517,-1.0176814 -0.149517,-0.3376194 -0.438905,-0.3376194 -0.173633,0 -0.303858,0.067524 -0.130224,0.067524 -0.217041,0.2315105 -0.08682,0.1591635 -0.135048,0.4244359 -0.04341,0.2652724 -0.04341,0.6607694 v 3.7620451 q 0,0.3858508 0.03376,0.641477 0.03858,0.2556261 0.120578,0.4099664 0.08199,0.1543403 0.212218,0.2218642 0.135048,0.062701 0.32315,0.062701 0.120579,0 0.231511,-0.053055 0.110932,-0.057878 0.192925,-0.1736329 0.08682,-0.1205783 0.135048,-0.2990343 0.05306,-0.1832791 0.05306,-0.429259 V 6.7794236 h 1.143082 v 0.7620553 q 0,0.9935657 -0.453374,1.4662329 -0.453375,0.4726672 -1.302247,0.4774904 z"
         style="font-style:normal;font-variant:normal;font-weight:normal;font-stretch:normal;font-size:9.87778px;font-family:'Fjalla One';-inkscape-font-specification:'Fjalla One, Normal';font-variant-ligatures:normal;font-variant-caps:normal;font-variant-numeric:normal;font-variant-east-asian:normal;fill:#333333;fill-opacity:1;stroke-width:0.264583"
         id="path849" />
      <path
         d="m 24.045909,9.4852022 q -0.212218,0 -0.434082,-0.033762 Q 23.394786,9.4176783 23.187391,9.3115693 22.98482,9.2054604 22.801541,9.0077118 22.623085,8.8099633 22.488037,8.4868133 22.352989,8.1636632 22.275819,7.690996 22.198649,7.2183288 22.198649,6.5623825 V 5.5205854 q 0,-0.6463 0.07717,-1.1044978 0.08199,-0.463021 0.217041,-0.7765247 0.139871,-0.3135038 0.32315,-0.4967829 0.183279,-0.1881023 0.385851,-0.284565 0.207395,-0.1012858 0.424436,-0.1302246 0.217041,-0.033762 0.424435,-0.033762 0.197749,0 0.409967,0.028939 0.212218,0.028939 0.41479,0.1254015 0.202571,0.09164 0.381027,0.2797418 0.183279,0.1832791 0.318327,0.4967829 0.139871,0.3135037 0.217041,0.7813478 0.08199,0.4630209 0.08199,1.1141441 v 1.0417971 q 0,0.6463001 -0.08199,1.1141441 -0.08199,0.4678441 -0.221864,0.7909941 -0.139871,0.3231501 -0.32315,0.5257217 -0.183279,0.1977485 -0.385851,0.3086806 -0.202572,0.1109321 -0.414789,0.1446941 -0.207395,0.038585 -0.400321,0.038585 z m 0.0096,-0.9405113 q 0.163986,0 0.274918,-0.081993 0.115756,-0.086816 0.183279,-0.2797418 0.07235,-0.1929254 0.101286,-0.5064292 0.03376,-0.3183269 0.03376,-0.7861709 V 5.255313 q 0,-0.4678441 -0.03376,-0.786171 -0.02894,-0.3183269 -0.101286,-0.5112522 -0.06752,-0.1977486 -0.183279,-0.284565 -0.110932,-0.086816 -0.274918,-0.086816 -0.173633,0 -0.294212,0.086816 -0.115755,0.086816 -0.192925,0.284565 -0.07717,0.1929253 -0.110932,0.5112522 -0.03376,0.3183269 -0.03376,0.786171 v 1.6350427 q 0,0.467844 0.03376,0.7861709 0.03376,0.3135038 0.110932,0.5064292 0.07717,0.1929254 0.192925,0.2797418 0.120579,0.081993 0.294212,0.081993 z"
         style="font-style:normal;font-variant:normal;font-weight:normal;font-stretch:normal;font-size:9.87778px;font-family:'Fjalla One';-inkscape-font-specification:'Fjalla One, Normal';font-variant-ligatures:normal;font-variant-caps:normal;font-variant-numeric:normal;font-variant-east-asian:normal;fill:#333333;fill-opacity:1;stroke-width:0.264583"
         id="path851" />
      <path
         d="m 26.954259,2.7713986 h 0.940512 l 0.110932,0.7090008 v 0.00482 q 0.144694,-0.2266873 0.30868,-0.3762045 0.16881,-0.1543403 0.347266,-0.2459798 0.178456,-0.09164 0.361735,-0.1302247 0.188102,-0.038585 0.371382,-0.038585 0.583599,0 0.897103,0.4099665 0.318327,0.4051433 0.318327,1.2202531 V 9.4128551 H 29.389942 V 4.3678562 q 0,-0.4389053 -0.135047,-0.607715 -0.135048,-0.1736328 -0.395497,-0.1736328 -0.183279,0 -0.366559,0.1205783 -0.178456,0.1205784 -0.318326,0.3327963 v 5.3729721 h -1.220254 z"
         style="font-style:normal;font-variant:normal;font-weight:normal;font-stretch:normal;font-size:9.87778px;font-family:'Fjalla One';-inkscape-font-specification:'Fjalla One, Normal';font-variant-ligatures:normal;font-variant-caps:normal;font-variant-numeric:normal;font-variant-east-asian:normal;fill:#333333;fill-opacity:1;stroke-width:0.264583"
         id="path853" />
      <path
         d="m 31.613408,8.0237923 q 0,-0.217041 0.03859,-0.4196127 0.04341,-0.2025716 0.08199,-0.32315 h 0.858518 q 0,0.3617351 0.03376,0.607715 0.03858,0.2411567 0.120578,0.3858507 0.08199,0.1446941 0.217042,0.2073948 0.13987,0.062701 0.337619,0.062701 0.274919,0 0.40032,-0.1543403 0.125402,-0.1543403 0.125402,-0.356912 0,-0.106109 -0.02894,-0.2025716 -0.02894,-0.096463 -0.08199,-0.1929254 Q 33.66324,7.5366557 33.58607,7.4353699 33.5089,7.3340841 33.412437,7.2135057 L 32.520157,6.1620623 Q 32.346524,5.9450213 32.182538,5.7231571 32.023374,5.4964697 31.897973,5.2601361 31.777394,5.0189794 31.700224,4.7585301 q -0.07235,-0.2604493 -0.07235,-0.5498373 0,-0.3858508 0.130225,-0.6704158 0.135048,-0.2845649 0.356912,-0.4726672 0.226687,-0.1881022 0.520898,-0.2797418 0.294212,-0.09164 0.622185,-0.09164 0.361735,0 0.651123,0.086816 0.289388,0.086816 0.496783,0.2604492 0.207395,0.1736329 0.318327,0.4340822 0.110932,0.2556261 0.110932,0.5980687 0,0.2315105 -0.04341,0.4485515 -0.03859,0.2170411 -0.07717,0.3713814 H 33.870635 Q 33.865812,4.5656047 33.841696,4.3196249 33.81758,4.073645 33.750056,3.9144815 33.687356,3.750495 33.5716,3.6685017 q -0.110932,-0.081993 -0.294211,-0.081993 -0.159163,0 -0.265272,0.053055 -0.106109,0.048231 -0.173633,0.1302246 -0.0627,0.081993 -0.09164,0.1832791 -0.02412,0.1012858 -0.02412,0.2073948 0,0.2315105 0.110932,0.429259 0.110932,0.1977485 0.294211,0.429259 l 0.974273,1.1430829 q 0.106109,0.1302247 0.24598,0.3183269 0.139871,0.1832791 0.265273,0.4099665 0.125401,0.2218642 0.212218,0.4871366 0.08682,0.2652724 0.08682,0.5546605 0,0.3520888 -0.110932,0.6414769 -0.110932,0.284565 -0.327973,0.4871366 -0.217041,0.2025717 -0.535368,0.3135038 -0.313504,0.1109321 -0.718647,0.1109321 -0.332797,0 -0.627008,-0.072347 Q 32.298293,9.335685 32.081252,9.1668753 31.864211,8.9932424 31.738809,8.7135006 31.613408,8.4337588 31.613408,8.0237923 Z"
         style="font-style:normal;font-variant:normal;font-weight:normal;font-stretch:normal;font-size:9.87778px;font-family:'Fjalla One';-inkscape-font-specification:'Fjalla One, Normal';font-variant-ligatures:normal;font-variant-caps:normal;font-variant-numeric:normal;font-variant-east-asian:normal;fill:#333333;fill-opacity:1;stroke-width:0.264583"
         id="path855" />
      <path
         d="m 35.881882,2.7713986 h 1.220253 v 4.9919445 q 0,0.4389052 0.135048,0.6125381 0.135048,0.1688097 0.395497,0.1688097 0.183279,0 0.356912,-0.1012858 0.173633,-0.1012859 0.313504,-0.2893881 V 2.7713986 h 1.220253 V 9.4128551 H 38.592484 L 38.471905,8.7038543 h -0.0048 q -0.144694,0.2266874 -0.30868,0.3810277 -0.159164,0.1495172 -0.33762,0.2411567 -0.173633,0.086816 -0.356912,0.1254015 -0.183279,0.038585 -0.366558,0.038585 -0.583599,0 -0.901926,-0.4051433 -0.313504,-0.4051433 -0.313504,-1.2250762 z"
         style="font-style:normal;font-variant:normal;font-weight:normal;font-stretch:normal;font-size:9.87778px;font-family:'Fjalla One';-inkscape-font-specification:'Fjalla One, Normal';font-variant-ligatures:normal;font-variant-caps:normal;font-variant-numeric:normal;font-variant-east-asian:normal;fill:#333333;fill-opacity:1;stroke-width:0.264583"
         id="path857" />
      <path
         d="m 40.815948,0.63957304 h 1.220253 V 9.4128551 h -1.220253 z"
         style="font-style:normal;font-variant:normal;font-weight:normal;font-stretch:normal;font-size:9.87778px;font-family:'Fjalla One';-inkscape-font-specification:'Fjalla One, Normal';font-variant-ligatures:normal;font-variant-caps:normal;font-variant-numeric:normal;font-variant-east-asian:normal;fill:#333333;fill-opacity:1;stroke-width:0.264583"
         id="path859" />
      <path
         d="M 43.449378,3.6395629 H 42.933302 V 2.7713986 h 0.622185 l 0.24598,-1.7218591 h 0.868164 v 1.7218591 h 1.06109 v 0.8681643 h -1.06109 v 4.225066 q 0,0.2170411 0.03858,0.3520888 0.04341,0.1302247 0.115755,0.2073948 0.07235,0.072347 0.16881,0.096463 0.09646,0.024116 0.202572,0.024116 0.178456,0 0.313503,-0.043408 0.139871,-0.043408 0.265273,-0.1205784 v 0.6752389 q -0.106109,0.1302246 -0.231511,0.2122179 -0.120578,0.081993 -0.250803,0.1350478 -0.130224,0.048231 -0.265272,0.067524 -0.135048,0.019292 -0.265273,0.019292 -0.255626,0 -0.491959,-0.067524 Q 44.032977,9.3549775 43.849698,9.1668753 43.666419,8.9739499 43.555487,8.6363305 43.449378,8.298711 43.449378,7.7585199 Z"
         style="font-style:normal;font-variant:normal;font-weight:normal;font-stretch:normal;font-size:9.87778px;font-family:'Fjalla One';-inkscape-font-specification:'Fjalla One, Normal';font-variant-ligatures:normal;font-variant-caps:normal;font-variant-numeric:normal;font-variant-east-asian:normal;fill:#333333;fill-opacity:1;stroke-width:0.264583"
         id="path861" />
      <path
         d="m 47.216249,1.8212411 q -0.337619,0 -0.535368,-0.2025717 -0.192925,-0.2025717 -0.192925,-0.5932456 0,-0.21704104 0.04823,-0.36173508 0.05306,-0.14951718 0.144694,-0.2363336 0.09646,-0.0916396 0.231511,-0.13022464 0.135047,-0.0434082 0.30868,-0.0434082 0.361735,0 0.549838,0.18327913 0.188102,0.18327912 0.188102,0.58842241 0,0.3762045 -0.192925,0.5884225 -0.188103,0.2073948 -0.549838,0.2073948 z m -0.63183,0.9501575 h 1.220253 v 6.6414565 h -1.220253 z"
         style="font-style:normal;font-variant:normal;font-weight:normal;font-stretch:normal;font-size:9.87778px;font-family:'Fjalla One';-inkscape-font-specification:'Fjalla One, Normal';font-variant-ligatures:normal;font-variant-caps:normal;font-variant-numeric:normal;font-variant-east-asian:normal;fill:#333333;fill-opacity:1;stroke-width:0.264583"
         id="path863" />
      <path
         d="m 49.077978,2.7713986 h 0.940511 l 0.110932,0.7090008 v 0.00482 q 0.144694,-0.2266873 0.308681,-0.3762045 0.168809,-0.1543403 0.347265,-0.2459798 0.178456,-0.09164 0.361735,-0.1302247 0.188103,-0.038585 0.371382,-0.038585 0.583599,0 0.897103,0.4099665 0.318327,0.4051433 0.318327,1.2202531 V 9.4128551 H 51.513661 V 4.3678562 q 0,-0.4389053 -0.135048,-0.607715 -0.135048,-0.1736328 -0.395497,-0.1736328 -0.183279,0 -0.366558,0.1205783 -0.178456,0.1205784 -0.318327,0.3327963 v 5.3729721 h -1.220253 z"
         style="font-style:normal;font-variant:normal;font-weight:normal;font-stretch:normal;font-size:9.87778px;font-family:'Fjalla One';-inkscape-font-specification:'Fjalla One, Normal';font-variant-ligatures:normal;font-variant-caps:normal;font-variant-numeric:normal;font-variant-east-asian:normal;fill:#333333;fill-opacity:1;stroke-width:0.264583"
         id="path865" />
      <path
         d="m 54.991141,9.8662298 q 0,0.4292592 0.159164,0.6077152 0.159163,0.178456 0.491959,0.178456 0.135048,0 0.26045,-0.04341 0.125401,-0.03859 0.217041,-0.149518 0.09646,-0.106109 0.15434,-0.299034 0.05788,-0.1929254 0.05788,-0.4967828 V 8.6170379 q -0.163987,0.2122179 -0.424436,0.3665583 -0.255626,0.1495171 -0.636654,0.1495171 -0.110932,0 -0.260449,-0.019293 Q 54.860916,9.0897051 54.701753,9.012535 54.54259,8.9353648 54.388249,8.7810245 54.233909,8.621861 54.113331,8.3565886 53.992752,8.0913162 53.915582,7.6958192 53.843235,7.295499 53.843235,6.7311922 V 4.9852175 q 0,-0.5401911 0.07235,-0.9163957 0.07717,-0.3810276 0.197749,-0.6366537 0.120578,-0.2556262 0.274918,-0.4003202 0.159164,-0.1446941 0.318327,-0.2170411 0.163987,-0.07717 0.318327,-0.096463 0.15434,-0.019292 0.274919,-0.019292 0.241156,0 0.424436,0.062701 0.188102,0.062701 0.32315,0.1688097 0.13987,0.1012859 0.236333,0.2315105 0.09646,0.1302247 0.163987,0.2604493 L 56.55866,2.7665755 h 0.950157 v 6.3761841 q 0,0.5546605 -0.106109,0.9983884 -0.106109,0.448552 -0.332796,0.762056 -0.226687,0.318327 -0.578776,0.487136 -0.347266,0.16881 -0.834402,0.16881 -0.327973,0 -0.617362,-0.05788 -0.289388,-0.05788 -0.506429,-0.207394 -0.217041,-0.144694 -0.342442,-0.40032 -0.125402,-0.250803 -0.125402,-0.641477 0,-0.06752 0.01447,-0.16881 0.01447,-0.101286 0.04823,-0.2170412 z m 0.694531,-1.6784509 q 0.120579,0 0.212218,-0.038585 0.09646,-0.043408 0.16881,-0.1109321 0.07717,-0.067524 0.130225,-0.1543403 0.05788,-0.086816 0.09646,-0.178456 V 4.073645 q -0.09164,-0.2025717 -0.245979,-0.3424426 -0.149518,-0.144694 -0.366559,-0.144694 -0.135047,0 -0.24598,0.048231 -0.110932,0.048231 -0.192925,0.1832791 -0.08199,0.1302247 -0.130225,0.3665583 -0.04341,0.2315105 -0.04341,0.6028918 V 6.972349 q 0,0.3713813 0.04341,0.6077149 0.04823,0.2363336 0.130225,0.3713814 0.08199,0.1350478 0.192925,0.1881023 0.115756,0.048231 0.250803,0.048231 z"
         style="font-style:normal;font-variant:normal;font-weight:normal;font-stretch:normal;font-size:9.87778px;font-family:'Fjalla One';-inkscape-font-specification:'Fjalla One, Normal';font-variant-ligatures:normal;font-variant-caps:normal;font-variant-numeric:normal;font-variant-east-asian:normal;fill:#333333;fill-opacity:1;stroke-width:0.264583"
         id="path867" />
    </g>
    <g
       aria-label="by Troels Damgaard"
       id="text839"
       style="font-style:normal;font-variant:normal;font-weight:normal;font-stretch:normal;font-size:3.88056px;line-height:1.25;font-family:Exo;-inkscape-font-specification:'Exo, Normal';font-variant-ligatures:normal;font-variant-caps:normal;font-variant-numeric:normal;font-variant-east-asian:normal;stroke-width:0.264583">
      <path
         d="m 13.498048,14.235372 q -0.147461,0 -0.275519,-0.03492 -0.124178,-0.03881 -0.228953,-0.08925 -0.104775,-0.05433 -0.186267,-0.108656 l -0.05821,0.209551 h -0.248355 v -2.960868 h 0.306564 v 1.078796 q 0.147461,-0.08537 0.333728,-0.151342 0.186267,-0.06597 0.34537,-0.06597 0.248356,0 0.411339,0.104775 0.162984,0.104775 0.244475,0.341489 0.08537,0.236714 0.08537,0.632531 0,0.322087 -0.07373,0.558801 -0.07373,0.232834 -0.236714,0.360892 -0.159103,0.124178 -0.419101,0.124178 z m -0.09701,-0.256117 q 0.170745,0 0.283281,-0.08537 0.116417,-0.08925 0.174626,-0.267759 0.06209,-0.178506 0.06209,-0.446264 0,-0.34149 -0.06985,-0.512234 -0.06597,-0.174625 -0.182386,-0.236714 -0.116417,-0.06209 -0.267759,-0.06209 -0.174625,0 -0.314325,0.05045 -0.13582,0.04657 -0.2794,0.124178 v 1.268943 q 0.120297,0.05821 0.263878,0.112536 0.147461,0.05433 0.329847,0.05433 z"
         style="font-style:normal;font-variant:normal;font-weight:normal;font-stretch:normal;font-size:3.88056px;font-family:Exo;-inkscape-font-specification:'Exo, Normal';font-variant-ligatures:normal;font-variant-caps:normal;font-variant-numeric:normal;font-variant-east-asian:normal;fill:#333333;stroke-width:0.264583"
         id="path870" />
      <path
         d="m 15.221012,15.131781 0.263878,-0.919692 q -0.09701,-0.0039 -0.201789,-0.04657 -0.104775,-0.04269 -0.194028,-0.147461 -0.08925,-0.104776 -0.147461,-0.291042 L 14.4449,12.13987 h 0.322086 l 0.461787,1.521179 q 0.04269,0.120297 0.08925,0.178506 0.05045,0.05821 0.100895,0.08149 0.05045,0.02328 0.08537,0.02716 0.0388,0 0.04657,0 l 0.531636,-1.808341 h 0.314326 l -0.75671,2.607736 -0.178505,0.384175 z"
         style="font-style:normal;font-variant:normal;font-weight:normal;font-stretch:normal;font-size:3.88056px;font-family:Exo;-inkscape-font-specification:'Exo, Normal';font-variant-ligatures:normal;font-variant-caps:normal;font-variant-numeric:normal;font-variant-east-asian:normal;fill:#333333;stroke-width:0.264583"
         id="path872" />
      <path
         d="M 18.461268,14.212089 V 11.635397 H 17.580381 V 11.355996 H 19.6526 v 0.279401 h -0.880887 v 2.576692 z"
         style="font-style:normal;font-variant:normal;font-weight:normal;font-stretch:normal;font-size:3.88056px;font-family:Exo;-inkscape-font-specification:'Exo, Normal';font-variant-ligatures:normal;font-variant-caps:normal;font-variant-numeric:normal;font-variant-east-asian:normal;fill:#333333;stroke-width:0.264583"
         id="path874" />
      <path
         d="M 19.931998,14.212089 V 12.13987 h 0.232834 l 0.07373,0.360892 q 0.1397,-0.166864 0.310444,-0.27552 0.174626,-0.108656 0.399698,-0.108656 0.05433,0 0.100895,0.0039 0.05045,0.0039 0.09313,0.01552 v 0.314325 q -0.05045,-0.0078 -0.108656,-0.01164 -0.05821,-0.0078 -0.116416,-0.0078 -0.143581,0 -0.256117,0.03493 -0.112537,0.03492 -0.213431,0.104775 -0.100895,0.06985 -0.20955,0.170744 v 1.470733 z"
         style="font-style:normal;font-variant:normal;font-weight:normal;font-stretch:normal;font-size:3.88056px;font-family:Exo;-inkscape-font-specification:'Exo, Normal';font-variant-ligatures:normal;font-variant-caps:normal;font-variant-numeric:normal;font-variant-east-asian:normal;fill:#333333;stroke-width:0.264583"
         id="path876" />
      <path
         d="m 22.353463,14.235372 q -0.225072,0 -0.395817,-0.04657 -0.166864,-0.04657 -0.2794,-0.162983 -0.112537,-0.116417 -0.166864,-0.322087 -0.05433,-0.20955 -0.05433,-0.531636 0,-0.325968 0.05433,-0.531637 0.05433,-0.20955 0.166864,-0.322087 0.112536,-0.116416 0.2794,-0.159103 0.170745,-0.04657 0.395817,-0.04657 0.225073,0 0.391937,0.04657 0.170744,0.04657 0.28328,0.162984 0.112537,0.112536 0.166865,0.322086 0.05821,0.20567 0.05821,0.527757 0,0.325967 -0.05821,0.535517 -0.05433,0.205669 -0.166865,0.322086 -0.108655,0.112537 -0.2794,0.159103 -0.170744,0.04657 -0.395817,0.04657 z m 0,-0.252236 q 0.143581,0 0.252236,-0.02716 0.112537,-0.02716 0.186267,-0.108656 0.07373,-0.08149 0.112537,-0.244475 0.0388,-0.162984 0.0388,-0.430742 0,-0.27164 -0.0388,-0.430743 -0.03881,-0.159103 -0.112537,-0.240594 -0.07373,-0.08149 -0.186267,-0.108656 -0.108655,-0.02716 -0.252236,-0.02716 -0.147461,0 -0.256117,0.02716 -0.108656,0.02716 -0.182386,0.108656 -0.07373,0.08149 -0.112536,0.240594 -0.03881,0.159103 -0.03881,0.430743 0,0.267758 0.03881,0.430742 0.0388,0.162983 0.112536,0.244475 0.07373,0.08149 0.182386,0.108656 0.108656,0.02716 0.256117,0.02716 z"
         style="font-style:normal;font-variant:normal;font-weight:normal;font-stretch:normal;font-size:3.88056px;font-family:Exo;-inkscape-font-specification:'Exo, Normal';font-variant-ligatures:normal;font-variant-caps:normal;font-variant-numeric:normal;font-variant-east-asian:normal;fill:#333333;stroke-width:0.264583"
         id="path878" />
      <path
         d="m 24.5615,14.235372 q -0.325967,0 -0.516115,-0.09701 -0.186266,-0.09701 -0.267758,-0.329848 -0.08149,-0.232833 -0.08149,-0.636411 0,-0.41134 0.08149,-0.640293 0.08537,-0.232833 0.27552,-0.325967 0.190147,-0.09313 0.512233,-0.09313 0.27552,0 0.446265,0.06209 0.174625,0.06209 0.256117,0.21343 0.08537,0.147462 0.08537,0.41134 0,0.182386 -0.07373,0.294922 -0.06985,0.108656 -0.20567,0.159103 -0.131939,0.04657 -0.314326,0.04657 h -0.756709 q 0.0039,0.252236 0.05433,0.407459 0.05045,0.151342 0.182386,0.221192 0.13582,0.06597 0.395818,0.06597 h 0.667456 v 0.186267 q -0.178506,0.02328 -0.349251,0.03881 -0.170744,0.01552 -0.391936,0.01552 z m -0.562681,-1.137004 h 0.737306 q 0.174625,0 0.256117,-0.06209 0.08537,-0.06597 0.08537,-0.232834 0,-0.178505 -0.05433,-0.275519 -0.05045,-0.100895 -0.162984,-0.139701 -0.108656,-0.04269 -0.294923,-0.04269 -0.217311,0 -0.341489,0.06597 -0.124178,0.06209 -0.174625,0.225072 -0.05045,0.162984 -0.05045,0.461787 z"
         style="font-style:normal;font-variant:normal;font-weight:normal;font-stretch:normal;font-size:3.88056px;font-family:Exo;-inkscape-font-specification:'Exo, Normal';font-variant-ligatures:normal;font-variant-caps:normal;font-variant-numeric:normal;font-variant-east-asian:normal;fill:#333333;stroke-width:0.264583"
         id="path880" />
      <path
         d="m 26.412522,14.215969 q -0.178506,0 -0.298803,-0.06209 -0.120298,-0.06597 -0.182387,-0.20955 -0.06209,-0.147461 -0.06209,-0.395817 v -2.297292 h 0.306565 v 2.258486 q 0,0.186267 0.03493,0.283281 0.03492,0.09313 0.100894,0.131939 0.06597,0.03492 0.155223,0.04657 l 0.20955,0.02328 v 0.221192 z"
         style="font-style:normal;font-variant:normal;font-weight:normal;font-stretch:normal;font-size:3.88056px;font-family:Exo;-inkscape-font-specification:'Exo, Normal';font-variant-ligatures:normal;font-variant-caps:normal;font-variant-numeric:normal;font-variant-east-asian:normal;fill:#333333;stroke-width:0.264583"
         id="path882" />
      <path
         d="m 27.724146,14.235372 q -0.07761,0 -0.190147,-0.0039 -0.112537,-0.0039 -0.236715,-0.01164 -0.120297,-0.0078 -0.221192,-0.01552 -0.09701,-0.01164 -0.151341,-0.02328 v -0.186267 h 0.849842 q 0.128059,0 0.221192,-0.0194 0.09313,-0.0194 0.143581,-0.08537 0.05433,-0.06597 0.05433,-0.197908 v -0.09313 q 0,-0.135819 -0.08925,-0.20955 -0.08925,-0.07761 -0.287162,-0.07761 h -0.291042 q -0.182386,0 -0.325967,-0.04657 -0.1397,-0.04657 -0.217311,-0.159103 -0.07761,-0.112536 -0.07761,-0.310445 v -0.108655 q 0,-0.194028 0.07373,-0.318206 0.07761,-0.124178 0.236715,-0.186267 0.162983,-0.06209 0.4191,-0.06209 0.108656,0 0.248356,0.0078 0.143581,0.0078 0.2794,0.02328 0.13582,0.01164 0.221192,0.02716 v 0.186267 h -0.799395 q -0.197909,0 -0.306564,0.06597 -0.104776,0.06597 -0.104776,0.256117 v 0.08537 q 0,0.120297 0.05045,0.182386 0.05045,0.05821 0.1397,0.07761 0.09313,0.0194 0.213431,0.0194 h 0.294922 q 0.283281,0 0.438504,0.131939 0.155222,0.131939 0.155222,0.380295 v 0.143581 q 0,0.20955 -0.09701,0.325967 -0.09313,0.112536 -0.259998,0.159103 -0.162983,0.04269 -0.384175,0.04269 z"
         style="font-style:normal;font-variant:normal;font-weight:normal;font-stretch:normal;font-size:3.88056px;font-family:Exo;-inkscape-font-specification:'Exo, Normal';font-variant-ligatures:normal;font-variant-caps:normal;font-variant-numeric:normal;font-variant-east-asian:normal;fill:#333333;stroke-width:0.264583"
         id="path884" />
      <path
         d="m 30.002022,14.212089 v -2.856093 h 1.129243 q 0.259997,0 0.438503,0.09701 0.178506,0.09313 0.287161,0.27552 0.112536,0.182387 0.162984,0.450145 0.05045,0.263878 0.05045,0.605368 0,0.450144 -0.104775,0.76835 -0.104775,0.318206 -0.314325,0.488951 -0.209551,0.170745 -0.519995,0.170745 z m 0.310444,-0.27552 h 0.795515 q 0.228953,0 0.372534,-0.1397 0.143581,-0.143581 0.213431,-0.399698 0.06985,-0.259998 0.06985,-0.613128 0,-0.318206 -0.03881,-0.535518 -0.0388,-0.221192 -0.120297,-0.357011 -0.07761,-0.13582 -0.201789,-0.194028 -0.124178,-0.06209 -0.294923,-0.06209 h -0.795515 z"
         style="font-style:normal;font-variant:normal;font-weight:normal;font-stretch:normal;font-size:3.88056px;font-family:Exo;-inkscape-font-specification:'Exo, Normal';font-variant-ligatures:normal;font-variant-caps:normal;font-variant-numeric:normal;font-variant-east-asian:normal;fill:#333333;stroke-width:0.264583"
         id="path886" />
      <path
         d="m 32.959003,14.235372 q -0.228953,0 -0.376415,-0.13582 -0.147461,-0.135819 -0.147461,-0.384175 v -0.147461 q 0,-0.244476 0.159103,-0.395817 0.162984,-0.151342 0.488951,-0.151342 h 0.702381 V 12.76464 q 0,-0.128059 -0.04657,-0.217312 -0.04269,-0.09313 -0.159103,-0.14358 -0.112536,-0.05045 -0.329847,-0.05045 h -0.644173 v -0.182386 q 0.135819,-0.02328 0.314325,-0.04269 0.182386,-0.0194 0.426862,-0.0194 0.252236,-0.0039 0.4191,0.06209 0.166864,0.06597 0.244475,0.20955 0.08149,0.1397 0.08149,0.368653 v 1.462972 h -0.236714 l -0.05821,-0.236715 q -0.01552,0.01552 -0.09701,0.05433 -0.07761,0.03881 -0.20179,0.08925 -0.120297,0.04657 -0.263878,0.08149 -0.1397,0.03492 -0.275519,0.03492 z m 0.128058,-0.228953 q 0.06985,0.0039 0.159103,-0.01552 0.08925,-0.0194 0.182386,-0.04269 0.09313,-0.02716 0.170745,-0.05433 0.08149,-0.02716 0.131939,-0.04657 0.05045,-0.0194 0.05433,-0.0194 v -0.651934 l -0.632531,0.02716 q -0.221192,0.0078 -0.318206,0.108656 -0.09313,0.100894 -0.09313,0.259997 v 0.09313 q 0,0.124178 0.05045,0.201789 0.05433,0.07373 0.131939,0.104775 0.08149,0.03104 0.162983,0.03492 z"
         style="font-style:normal;font-variant:normal;font-weight:normal;font-stretch:normal;font-size:3.88056px;font-family:Exo;-inkscape-font-specification:'Exo, Normal';font-variant-ligatures:normal;font-variant-caps:normal;font-variant-numeric:normal;font-variant-east-asian:normal;fill:#333333;stroke-width:0.264583"
         id="path888" />
      <path
         d="M 34.670321,14.212089 V 12.13987 h 0.240595 l 0.06597,0.228953 q 0.155223,-0.108656 0.34537,-0.186267 0.194028,-0.07761 0.430742,-0.07761 0.194028,0 0.329848,0.08925 0.1397,0.08537 0.20955,0.217312 0.09701,-0.06985 0.232834,-0.1397 0.1397,-0.06985 0.294922,-0.116417 0.159103,-0.05045 0.306565,-0.05045 0.225072,0 0.368653,0.09701 0.143581,0.09313 0.20955,0.256117 0.06985,0.159102 0.06985,0.357011 v 1.397002 H 37.468205 V 12.83837 q 0,-0.131939 -0.05433,-0.232833 -0.05045,-0.104775 -0.147461,-0.162984 -0.09701,-0.05821 -0.236714,-0.05821 -0.174626,0 -0.357012,0.06597 -0.182386,0.06597 -0.337609,0.159103 0.0194,0.05821 0.02716,0.116417 0.01164,0.05433 0.01164,0.116417 v 1.369838 H 36.067323 V 12.83837 q 0,-0.131939 -0.05433,-0.232833 -0.05045,-0.104775 -0.147461,-0.162984 -0.09313,-0.05821 -0.232834,-0.05821 -0.128058,0 -0.240595,0.02716 -0.108655,0.02328 -0.20955,0.06985 -0.09701,0.04269 -0.20567,0.104775 v 1.625955 z"
         style="font-style:normal;font-variant:normal;font-weight:normal;font-stretch:normal;font-size:3.88056px;font-family:Exo;-inkscape-font-specification:'Exo, Normal';font-variant-ligatures:normal;font-variant-caps:normal;font-variant-numeric:normal;font-variant-east-asian:normal;fill:#333333;stroke-width:0.264583"
         id="path890" />
      <path
         d="m 38.857447,15.162826 q -0.20179,0 -0.357012,-0.05821 -0.151342,-0.05433 -0.240595,-0.170744 -0.08537,-0.112537 -0.08537,-0.283281 v -0.09313 q 0,-0.178505 0.09701,-0.298803 0.100895,-0.120297 0.252236,-0.178505 0.151342,-0.06209 0.310445,-0.06209 l 0.07761,0.124178 q -0.116416,0 -0.217311,0.0388 -0.100895,0.03492 -0.166864,0.116417 -0.06209,0.08149 -0.06209,0.20955 v 0.08537 q 0,0.186267 0.124178,0.263879 0.124178,0.08149 0.337609,0.08149 h 0.481189 q 0.232834,0 0.364773,-0.08925 0.135819,-0.08925 0.135819,-0.2794 v -0.07761 q 0,-0.108656 -0.04269,-0.186267 -0.04269,-0.07761 -0.143581,-0.120297 -0.09701,-0.04269 -0.275519,-0.04269 h -0.624771 q -0.240594,0 -0.376414,-0.100895 -0.131939,-0.104775 -0.131939,-0.267759 0,-0.155222 0.08925,-0.244475 0.09313,-0.08925 0.259998,-0.124178 -0.143581,-0.05821 -0.225073,-0.155222 -0.08149,-0.100895 -0.112536,-0.213431 -0.03104,-0.116417 -0.03104,-0.232834 0,-0.240594 0.09701,-0.388056 0.09701,-0.147461 0.27552,-0.21343 0.182386,-0.06597 0.426862,-0.06597 h 1.105959 v 0.174625 l -0.465667,0.03881 q 0.05045,0.03492 0.112536,0.09313 0.06209,0.05433 0.104775,0.159103 0.04657,0.100895 0.04657,0.279401 0,0.159102 -0.06985,0.302683 -0.06597,0.143581 -0.225072,0.236714 -0.159103,0.08925 -0.438504,0.08925 h -0.329847 q -0.162984,0 -0.259998,0.05045 -0.09313,0.04657 -0.09313,0.170744 0,0.09313 0.06985,0.131939 0.06985,0.03881 0.147461,0.03881 h 0.686859 q 0.240595,0 0.395817,0.06209 0.159103,0.06209 0.236714,0.190147 0.08149,0.124178 0.08149,0.318206 v 0.08537 q 0,0.283281 -0.194028,0.442384 -0.190147,0.162984 -0.570442,0.162984 z m 0.14358,-1.889833 h 0.232834 q 0.197908,0 0.298803,-0.05821 0.104775,-0.06209 0.143581,-0.159103 0.0388,-0.09701 0.0388,-0.209551 0,-0.174625 -0.05821,-0.275519 -0.05433,-0.104775 -0.155223,-0.147462 -0.100894,-0.04657 -0.232833,-0.04657 h -0.221192 q -0.221192,0 -0.34925,0.100894 -0.124178,0.09701 -0.124178,0.34149 0,0.240594 0.112536,0.34925 0.116417,0.104775 0.314325,0.104775 z"
         style="font-style:normal;font-variant:normal;font-weight:normal;font-stretch:normal;font-size:3.88056px;font-family:Exo;-inkscape-font-specification:'Exo, Normal';font-variant-ligatures:normal;font-variant-caps:normal;font-variant-numeric:normal;font-variant-east-asian:normal;fill:#333333;stroke-width:0.264583"
         id="path892" />
      <path
         d="m 40.94906,14.235372 q -0.228953,0 -0.376415,-0.13582 -0.147461,-0.135819 -0.147461,-0.384175 v -0.147461 q 0,-0.244476 0.159103,-0.395817 0.162984,-0.151342 0.488951,-0.151342 h 0.702381 V 12.76464 q 0,-0.128059 -0.04657,-0.217312 -0.04269,-0.09313 -0.159103,-0.14358 -0.112536,-0.05045 -0.329847,-0.05045 h -0.644173 v -0.182386 q 0.135819,-0.02328 0.314325,-0.04269 0.182386,-0.0194 0.426862,-0.0194 0.252236,-0.0039 0.4191,0.06209 0.166864,0.06597 0.244475,0.20955 0.08149,0.1397 0.08149,0.368653 v 1.462972 h -0.236714 l -0.05821,-0.236715 q -0.01552,0.01552 -0.09701,0.05433 -0.07761,0.03881 -0.20179,0.08925 -0.120297,0.04657 -0.263878,0.08149 -0.1397,0.03492 -0.275519,0.03492 z m 0.128058,-0.228953 q 0.06985,0.0039 0.159103,-0.01552 0.08925,-0.0194 0.182386,-0.04269 0.09313,-0.02716 0.170745,-0.05433 0.08149,-0.02716 0.131939,-0.04657 0.05045,-0.0194 0.05433,-0.0194 v -0.651934 l -0.632531,0.02716 q -0.221192,0.0078 -0.318206,0.108656 -0.09313,0.100894 -0.09313,0.259997 v 0.09313 q 0,0.124178 0.05045,0.201789 0.05433,0.07373 0.131939,0.104775 0.08149,0.03104 0.162983,0.03492 z"
         style="font-style:normal;font-variant:normal;font-weight:normal;font-stretch:normal;font-size:3.88056px;font-family:Exo;-inkscape-font-specification:'Exo, Normal';font-variant-ligatures:normal;font-variant-caps:normal;font-variant-numeric:normal;font-variant-east-asian:normal;fill:#333333;stroke-width:0.264583"
         id="path894" />
      <path
         d="m 43.063958,14.235372 q -0.228953,0 -0.376414,-0.13582 -0.147461,-0.135819 -0.147461,-0.384175 v -0.147461 q 0,-0.244476 0.159103,-0.395817 0.162983,-0.151342 0.48895,-0.151342 h 0.702382 V 12.76464 q 0,-0.128059 -0.04657,-0.217312 -0.04269,-0.09313 -0.159103,-0.14358 Q 43.572312,12.3533 43.355,12.3533 h -0.644173 v -0.182386 q 0.13582,-0.02328 0.314326,-0.04269 0.182386,-0.0194 0.426861,-0.0194 0.252237,-0.0039 0.419101,0.06209 0.166864,0.06597 0.244475,0.20955 0.08149,0.1397 0.08149,0.368653 v 1.462972 h -0.236714 l -0.05821,-0.236715 q -0.01552,0.01552 -0.09701,0.05433 -0.07761,0.03881 -0.201789,0.08925 -0.120297,0.04657 -0.263878,0.08149 -0.1397,0.03492 -0.27552,0.03492 z m 0.128059,-0.228953 q 0.06985,0.0039 0.159103,-0.01552 0.08925,-0.0194 0.182386,-0.04269 0.09313,-0.02716 0.170745,-0.05433 0.08149,-0.02716 0.131939,-0.04657 0.05045,-0.0194 0.05433,-0.0194 v -0.651934 l -0.632532,0.02716 q -0.221192,0.0078 -0.318206,0.108656 -0.09313,0.100894 -0.09313,0.259997 v 0.09313 q 0,0.124178 0.05045,0.201789 0.05433,0.07373 0.131939,0.104775 0.08149,0.03104 0.162984,0.03492 z"
         style="font-style:normal;font-variant:normal;font-weight:normal;font-stretch:normal;font-size:3.88056px;font-family:Exo;-inkscape-font-specification:'Exo, Normal';font-variant-ligatures:normal;font-variant-caps:normal;font-variant-numeric:normal;font-variant-east-asian:normal;fill:#333333;stroke-width:0.264583"
         id="path896" />
      <path
         d="M 44.775277,14.212089 V 12.13987 h 0.232833 l 0.07373,0.360892 q 0.1397,-0.166864 0.310445,-0.27552 0.174625,-0.108656 0.399698,-0.108656 0.05433,0 0.100894,0.0039 0.05045,0.0039 0.09313,0.01552 v 0.314325 q -0.05045,-0.0078 -0.108656,-0.01164 -0.05821,-0.0078 -0.116417,-0.0078 -0.143581,0 -0.256117,0.03493 -0.112536,0.03492 -0.213431,0.104775 -0.100894,0.06985 -0.20955,0.170744 v 1.470733 z"
         style="font-style:normal;font-variant:normal;font-weight:normal;font-stretch:normal;font-size:3.88056px;font-family:Exo;-inkscape-font-specification:'Exo, Normal';font-variant-ligatures:normal;font-variant-caps:normal;font-variant-numeric:normal;font-variant-east-asian:normal;fill:#333333;stroke-width:0.264583"
         id="path898" />
      <path
         d="m 47.045399,14.235372 q -0.256117,0 -0.422981,-0.108656 -0.162983,-0.112536 -0.244475,-0.341489 -0.07761,-0.232834 -0.07761,-0.593726 0,-0.384175 0.07761,-0.620889 0.07761,-0.240595 0.248356,-0.349251 0.170744,-0.108655 0.457906,-0.108655 0.174625,0 0.341489,0.0388 0.166864,0.03881 0.294923,0.08537 v -0.985663 h 0.306564 v 2.960868 h -0.248356 l -0.05821,-0.209551 q -0.05821,0.05045 -0.174626,0.104775 -0.112536,0.05433 -0.248355,0.09313 -0.13194,0.03492 -0.252237,0.03492 z m 0.08925,-0.252236 q 0.178506,0 0.322086,-0.05433 0.147462,-0.05821 0.263879,-0.120298 v -1.354315 q -0.139701,-0.04269 -0.267759,-0.06985 -0.128059,-0.03104 -0.287162,-0.03104 -0.197908,0 -0.322086,0.07373 -0.124178,0.07373 -0.182386,0.256117 -0.05433,0.178506 -0.05433,0.496712 0,0.287161 0.05045,0.465667 0.05433,0.178506 0.170745,0.259997 0.116417,0.07761 0.306564,0.07761 z"
         style="font-style:normal;font-variant:normal;font-weight:normal;font-stretch:normal;font-size:3.88056px;font-family:Exo;-inkscape-font-specification:'Exo, Normal';font-variant-ligatures:normal;font-variant-caps:normal;font-variant-numeric:normal;font-variant-east-asian:normal;fill:#333333;stroke-width:0.264583"
         id="path900" />
    </g>
    <ellipse
       style="fill:#ca2a2a;fill-opacity:1;stroke-width:0.193349"
       id="path834"
       cx="60.754303"
       cy="8.1605034"
       rx="1.2695302"
       ry="1.3183583" />
  </g>
</svg>
